<?xml version="1.0" encoding="UTF-8" standalone="no"?>
<svg
   xmlns:dc="http://purl.org/dc/elements/1.1/"
   xmlns:cc="http://creativecommons.org/ns#"
   xmlns:rdf="http://www.w3.org/1999/02/22-rdf-syntax-ns#"
   xmlns:svg="http://www.w3.org/2000/svg"
   xmlns="http://www.w3.org/2000/svg"
   xmlns:sodipodi="http://sodipodi.sourceforge.net/DTD/sodipodi-0.dtd"
   xmlns:inkscape="http://www.inkscape.org/namespaces/inkscape"
   width="8800"
   height="550"
   viewBox="0 0 2328.3334 145.52083"
   version="1.1"
   id="svg3458"
   inkscape:version="1.0.2-2 (e86c870879, 2021-01-15)"
   sodipodi:docname="crow.svg">
  <defs
     id="defs3452" />
  <sodipodi:namedview
     id="base"
     pagecolor="#ffffff"
     bordercolor="#666666"
     borderopacity="1.0"
     inkscape:pageopacity="0.0"
     inkscape:pageshadow="2"
     inkscape:zoom="0.0875"
     inkscape:cx="6283.1839"
     inkscape:cy="1887.6775"
     inkscape:document-units="px"
     inkscape:current-layer="layer1"
     inkscape:document-rotation="0"
     showgrid="false"
     inkscape:window-width="1920"
     inkscape:window-height="1018"
     inkscape:window-x="1913"
     inkscape:window-y="-6"
     inkscape:window-maximized="1"
     units="px" />
  <metadata
     id="metadata3455">
    <rdf:RDF>
      <cc:Work
         rdf:about="">
        <dc:format>image/svg+xml</dc:format>
        <dc:type
           rdf:resource="http://purl.org/dc/dcmitype/StillImage" />
        <dc:title />
      </cc:Work>
    </rdf:RDF>
  </metadata>
  <g
     inkscape:label="Layer 1"
     inkscape:groupmode="layer"
     id="layer1">
    <g
       id="g15827"
       transform="matrix(-1,0,0,1,2328.3333,0)">
      <g
         id="g594"
         transform="matrix(0.381,0,0,0.381,-121.1816,-22.283276)">
        <path
           id="path30"
           style="fill:#161515;fill-opacity:1;fill-rule:nonzero;stroke:none;stroke-width:0.133333"
           d="m 703.95465,252.0054 c -21.33333,0.47333 -48.89333,-0.52134 -52.89333,0.0333 -4,0.55467 -34.66934,33.15333 -67.11733,33.15333 -32.44667,0 -29.33467,-10.536 -48.89334,-10.536 -17.232,0 -40.66933,-5.608 -39.91333,-21.164 1.44533,0.928 2.24533,1.408 2.24533,1.408 0,0 14.55734,6.84267 22.55734,6.09334 7.99866,-0.75467 18.78,-12.008 22.27866,-14.42134 3.5,-2.41066 16.14534,-2.244 12.83467,-7.82666 -3.30933,-5.58134 71.28666,-2.64267 80.31333,0 9.02667,2.644 3.58667,10.24 18.75333,7.82666 14.39867,-2.28933 57.592,-3.904 72.57867,-4.06266 0.252,4.01733 -7.272,9.15333 -22.744,9.496" />
        <path
           id="path32"
           style="fill:#161515;fill-opacity:1;fill-rule:nonzero;stroke:none;stroke-width:0.133333"
           d="m 603.94665,278.53873 c 0,0 2.22267,6.65333 12.00133,6.65333 9.77867,0 12.416,-10.588 10.63867,-13.54533 -1.77867,-2.95733 -5.03733,-2.21733 -5.03733,-2.21733 0,0 3.704,2.40266 1.92533,4.80533 0,0 -2.51867,-0.4 -3.25867,3.03467 -0.74133,3.43466 -4.00133,1.58666 -4.00133,1.58666 0,0 -0.97733,-7.39333 -5.304,-7.39333 -4.32667,0 -10.756,2.60267 -6.964,7.076" />
        <path
           id="path34"
           style="fill:#21222d;fill-opacity:1;fill-rule:nonzero;stroke:none;stroke-width:0.133333"
           d="m 555.05332,238.7454 c 3.31067,5.58266 -9.33467,5.416 -12.83467,7.82666 -3.49866,2.41334 -14.28,13.66667 -22.27866,14.42134 -8,0.74933 -22.55734,-6.09334 -22.55734,-6.09334 0,0 -0.36133,-0.21733 -1.036,-0.63866 3.956,-4.88 13.67867,-14.592 28.92534,-15.516 8.78666,-0.532 19.62666,-0.684 29.76666,-0.65467 -0.124,0.204 -0.124,0.42133 0.0147,0.65467" />
        <path
           id="path36"
           style="fill:#21222d;fill-opacity:1;fill-rule:nonzero;stroke:none;stroke-width:0.133333"
           d="m 726.69865,242.5094 c -14.98667,0.15866 -58.18,1.77333 -72.57867,4.06266 -15.064,2.39867 -9.79733,-5.08 -18.572,-7.77066 4.31467,-0.0293 7.07067,-0.056 7.07067,-0.056 0,0 11.82667,5.04666 80.71867,0.108 2.14666,0.87866 3.26933,2.192 3.36133,3.656" />
        <path
           id="path38"
           style="fill:#32334e;fill-opacity:1;fill-rule:nonzero;stroke:none;stroke-width:0.133333"
           d="m 723.33732,238.8534 c -68.892,4.93866 -80.71867,-0.108 -80.71867,-0.108 0,0 -2.756,0.0267 -7.07067,0.056 -0.06,-0.0187 -0.11866,-0.0373 -0.18133,-0.056 -8.64933,-2.532 -77.50933,-5.33734 -80.328,-0.65467 -10.14,-0.0293 -20.98,0.12267 -29.76666,0.65467 -15.24667,0.924 -24.96934,10.636 -28.92534,15.516 -0.32933,-0.21067 -0.736,-0.46667 -1.20933,-0.76934 0.0973,-2.096 0.64,-4.37333 1.69467,-6.84266 0,0 7.55066,-15.24134 31.10666,-15.24134 23.55867,0 12.00134,6.65334 37.78267,-2.77333 25.77867,-9.42667 69.78533,6.36933 82.228,9.00933 12.44666,2.636 66.67333,-2.096 75.11866,1.10134 0.092,0.0333 0.184,0.0707 0.26934,0.108" />
        <path
           id="path40"
           style="fill:#ffffff;fill-opacity:1;fill-rule:nonzero;stroke:none;stroke-width:0.133333"
           d="m 635.36665,238.7454 c 0.0627,0.0187 0.12133,0.0373 0.18133,0.056 -13.94,0.1 -44.15999,0.26933 -50.27066,-0.056 -4.56133,-0.244 -16.78133,-0.60934 -30.23867,-0.65467 2.81867,-4.68267 71.67867,-1.87733 80.328,0.65467" />
        <path
           id="path42"
           style="fill:#21222d;fill-opacity:1;fill-rule:nonzero;stroke:none;stroke-width:0.133333"
           d="m 643.06265,159.29073 c 0,0 1.776,4.57867 -3.11067,10.876 0,0 7.10934,4.27067 -2.22266,11.57733 0,0 1.33333,4.44934 -2.668,8.45467 0,0 8.44266,2.288 2.22266,9.72933 0,0 7.99867,4.58134 4.89067,11.448 0,0 5.92667,4.172 1.32933,14.108 0,0 1.57067,5.85334 -2.32266,11.42134 5.49466,-13.08934 -7.228,-15.84534 -7.228,-15.84534 5.56,-8.44533 -6.85067,-15.55733 -6.85067,-15.55733 5.37867,-7.55733 0,-19.112 0,-19.112 8.93467,-7.112 0,-11.556 0,-11.556 11.60133,-15.55867 -1.376,-9.33467 -1.376,-9.33467 0,0 0,0 4.00133,-7.89866 4,-7.89733 6.22267,-19.66133 1.77734,-12.99333 -4.444,6.66666 -11.112,16.44666 -11.112,16.44666 0,0 0,0 3.556,-11.55733 3.556,-11.55733 4.88933,-21.77867 0,-15.11067 -4.83867,6.59734 -12.86667,20.59333 -13.03334,20.88267 0.15734,-0.648 13.86534,-56.772 4.03334,-36.884 -9.88934,19.99867 -23.44933,46.66933 -22.116,41.38933 1.33333,-5.27867 17.336,-71.171997 9.96266,-49.836 -7.37466,21.33734 -26.40666,65.784 -20.62799,41.78134 0.964,-3.99734 1.79066,-7.88534 2.448,-11.424 1.92,-8.06934 3.78133,-15.85067 5.22533,-21.81334 5.052,-20.87733 -2.668,-10.668 -14.52133,16.00134 -8.508,19.14666 -13.80934,40.27599 -16.12667,50.67466 -1.81333,-2.232 -0.99867,-13.004 -0.0653,-22.71467 0.536,-5.56266 1.11466,-10.77466 1.26,-13.83599 0.38133,-8.02534 -4.49334,0.88933 -11,24.33866 -1.06134,3.828 -2.16934,8.04267 -3.30134,12.632 v 0.004 c -0.97866,4.7 -1.80133,9.556 -2.43333,13.65733 -6.404,-13.39466 10.372,-55.07066 16.28933,-70.85733 6.224,-16.59733 4.44534,20.60534 4.44534,20.60534 0,0 14.66933,-35.48667 24.44533,-57.23867 9.77867,-21.749333 12.89066,-9.162667 11.55733,0 -1.32133,9.08933 -9.64933,34.51467 -9.776,34.90933 0.17734,-0.38 11.61067,-24.816 18.66533,-46.951996 7.112,-22.293333 16.00267,-19.44 0,38.945336 0,0 7.112,-8.01334 17.336,-34.345337 10.224,-26.319999 8.44534,6.872 -3.556,40.069337 0,0 8.89067,-9.73067 20.444,-26.901337 11.55467,-17.167999 -6.208,31.447997 -12.87866,40.055997 0.324,-0.31333 10.79866,-10.43333 19.54666,-19.45066 8.89067,-9.15734 1.77867,18.88533 -11.55066,29.18933 0.264,-0.0773 12.796,-3.83867 4.44133,12.02133" />
        <path
           id="path44"
           style="fill:#161515;fill-opacity:1;fill-rule:nonzero;stroke:none;stroke-width:0.133333"
           d="m 641.18132,236.9054 c -1.176,1.68533 -2.85734,3.34266 -5.23067,4.80666 -10.224,6.29734 -42.228,11.616 -59.56133,10.95867 -17.33467,-0.656 -25.24133,-2.44533 -24.892,-10.95867 0,0 2.66667,-29.76133 -6.668,-40.63733 -0.456,-0.53067 -0.84667,-1.14667 -1.176,-1.83467 0.632,-4.10133 1.45467,-8.95733 2.43333,-13.65733 v -0.004 c 1.132,-4.58933 2.24,-8.804 3.30134,-12.632 6.50666,-23.44933 11.38133,-32.364 11,-24.33866 -0.14534,3.06133 -0.724,8.27333 -1.26,13.83599 -0.93334,9.71067 -1.748,20.48267 0.0653,22.71467 2.31733,-10.39867 7.61867,-31.528 16.12667,-50.67466 11.85333,-26.66934 19.57333,-36.87867 14.52133,-16.00134 -1.444,5.96267 -3.30533,13.744 -5.22533,21.81334 -0.65734,3.53866 -1.484,7.42666 -2.448,11.424 -5.77867,24.00266 13.25333,-20.444 20.62799,-41.78134 7.37334,-21.335997 -8.62933,44.55733 -9.96266,49.836 -1.33333,5.28 12.22666,-21.39066 22.116,-41.38933 9.832,-19.888 -3.876,36.236 -4.03334,36.884 0.16667,-0.28934 8.19467,-14.28533 13.03334,-20.88267 4.88933,-6.668 3.556,3.55334 0,15.11067 -3.556,11.55733 -3.556,11.55733 -3.556,11.55733 0,0 6.668,-9.78 11.112,-16.44666 4.44533,-6.668 2.22266,5.096 -1.77734,12.99333 -4.00133,7.89866 -4.00133,7.89866 -4.00133,7.89866 0,0 12.97733,-6.224 1.376,9.33467 0,0 8.93467,4.444 0,11.556 0,0 5.37867,11.55467 0,19.112 0,0 12.41067,7.112 6.85067,15.55733 0,0 12.72266,2.756 7.228,15.84534" />
        <path
           id="path46"
           style="fill:#21222d;fill-opacity:1;fill-rule:nonzero;stroke:none;stroke-width:0.133333"
           d="m 493.60799,255.77473 c -6.08667,0.0853 -18.90667,1.42 -28.63333,7.12267 0,0 0.87333,-2.59734 5.58533,-7.05467 4.71066,-4.45867 26.272,-7.45067 26.272,-7.45067 3.044,-0.49333 3.30133,2.05067 2.97466,4.292 -0.592,1.21467 -2.15066,3.03467 -6.19866,3.09067" />
        <path
           id="path48"
           style="fill:#161515;fill-opacity:1;fill-rule:nonzero;stroke:none;stroke-width:0.133333"
           d="m 500.03065,263.2214 c -4.84666,-1.48934 -35.05599,-0.324 -35.05599,-0.324 9.72666,-5.70267 22.54666,-7.03734 28.63333,-7.12267 4.048,-0.056 5.60666,-1.876 6.19866,-3.09067 -0.23866,1.64534 -0.792,3.128 -0.792,3.128 1.676,2.44134 1.016,7.40934 1.016,7.40934" />
        <path
           id="path50"
           style="fill:#21222d;fill-opacity:1;fill-rule:nonzero;stroke:none;stroke-width:0.133333"
           d="m 494.31599,256.7094 c 0,0 -7.88934,0.36266 -11.87067,1.24266 -3.98267,0.88 -5.82533,1.588 0.12133,1.872 5.94534,0.28267 15.71334,-0.284 11.74934,-3.11466" />
        <path
           id="path52"
           style="fill:#32334e;fill-opacity:1;fill-rule:nonzero;stroke:none;stroke-width:0.133333"
           d="m 495.23599,250.0094 c 0,0 2.328,0.56666 0.79866,1.79333 -1.52933,1.22667 -10.684,1.69867 -16.06266,2.83067 -5.37867,1.132 -6.79467,0.944 -4.71867,0 2.076,-0.944 11.088,-4.436 19.98267,-4.624" />
        <path
           id="path54"
           style="fill:#f4f4f4;fill-opacity:1;fill-rule:nonzero;stroke:none;stroke-width:0.133333"
           d="m 507.69065,248.70406 c 0,3.04934 2.472,5.52 5.52134,5.52 3.04933,0 5.52,-2.47066 5.52,-5.52 0,-3.04933 -2.47067,-5.52133 -5.52,-5.52133 -3.04934,0 -5.52134,2.472 -5.52134,5.52133" />
        <path
           id="path56"
           style="fill:#100f0d;fill-opacity:1;fill-rule:nonzero;stroke:none;stroke-width:0.133333"
           d="m 509.11865,248.7894 c 0,2.53333 2.05334,4.58666 4.58667,4.58666 2.53333,0 4.588,-2.05333 4.588,-4.58666 0,-2.53334 -2.05467,-4.588 -4.588,-4.588 -2.53333,0 -4.58667,2.05466 -4.58667,4.588" />
        <path
           id="path58"
           style="fill:#ffffff;fill-opacity:1;fill-rule:nonzero;stroke:none;stroke-width:0.133333"
           d="m 515.62399,244.6774 c 0,-0.52934 -0.42934,-0.95867 -0.95867,-0.95867 -0.53067,0 -0.96,0.42933 -0.96,0.95867 0,0.53066 0.42933,0.96 0.96,0.96 0.52933,0 0.95867,-0.42934 0.95867,-0.96" />
      </g>
    </g>
    <g
       id="g626"
       transform="matrix(-0.381,0,0,0.381,2371.816,-22.283272)">
      <path
         id="path60"
         style="fill:#161515;fill-opacity:1;fill-rule:nonzero;stroke:none;stroke-width:0.133333"
         d="m 1055.576,252.0054 c -21.3334,0.47333 -48.8934,-0.52134 -52.8934,0.0333 -4.00129,0.55467 -34.66929,33.15333 -67.11729,33.15333 -32.44667,0 -29.33467,-10.536 -48.89333,-10.536 -17.232,0 -40.66933,-5.608 -39.91333,-21.164 1.44533,0.928 2.24533,1.408 2.24533,1.408 0,0 14.556,6.84267 22.55733,6.09334 7.99867,-0.75467 18.78,-12.008 22.27867,-14.42134 3.5,-2.41066 16.14533,-2.244 12.83466,-7.82666 -3.30933,-5.58134 71.28667,-2.64267 80.31334,0 9.02666,2.644 3.58666,10.24 18.75202,7.82666 14.4,-2.28933 57.5933,-3.904 72.58,-4.06266 0.252,4.01733 -7.272,9.15333 -22.744,9.496" />
      <path
         id="path62"
         style="fill:#161515;fill-opacity:1;fill-rule:nonzero;stroke:none;stroke-width:0.133333"
         d="m 955.56798,278.53873 c 0,0 2.22266,6.65333 12.00133,6.65333 9.77867,0 12.416,-10.588 10.63867,-13.54533 -1.77867,-2.95733 -5.03734,-2.21733 -5.03734,-2.21733 0,0 3.704,2.40266 1.92534,4.80533 0,0 -2.51867,-0.4 -3.26,3.03467 -0.74,3.43466 -4,1.58666 -4,1.58666 0,0 -0.97734,-7.39333 -5.304,-7.39333 -4.32667,0 -10.756,2.60267 -6.964,7.076" />
      <path
         id="path64"
         style="fill:#21222d;fill-opacity:1;fill-rule:nonzero;stroke:none;stroke-width:0.133333"
         d="m 906.67464,238.7454 c 3.31067,5.58266 -9.33466,5.416 -12.83466,7.82666 -3.49867,2.41334 -14.28,13.66667 -22.27867,14.42134 -8.00133,0.74933 -22.55733,-6.09334 -22.55733,-6.09334 0,0 -0.36133,-0.21733 -1.036,-0.63866 3.956,-4.88 13.67867,-14.592 28.92533,-15.516 8.78667,-0.532 19.62667,-0.684 29.76667,-0.65467 -0.124,0.204 -0.124,0.42133 0.0147,0.65467" />
      <path
         id="path66"
         style="fill:#21222d;fill-opacity:1;fill-rule:nonzero;stroke:none;stroke-width:0.133333"
         d="m 1078.32,242.5094 c -14.9867,0.15866 -58.18,1.77333 -72.58,4.06266 -15.06269,2.39867 -9.79602,-5.08 -18.57069,-7.77066 4.31467,-0.0293 7.07067,-0.056 7.07067,-0.056 0,0 11.82662,5.04666 80.71862,0.108 2.1467,0.87866 3.2694,2.192 3.3614,3.656" />
      <path
         id="path68"
         style="fill:#32334e;fill-opacity:1;fill-rule:nonzero;stroke:none;stroke-width:0.133333"
         d="m 1074.9586,238.8534 c -68.892,4.93866 -80.71862,-0.108 -80.71862,-0.108 0,0 -2.756,0.0267 -7.07067,0.056 -0.06,-0.0187 -0.11867,-0.0373 -0.18133,-0.056 -8.64934,-2.532 -77.50934,-5.33734 -80.328,-0.65467 -10.14,-0.0293 -20.98,0.12267 -29.76667,0.65467 -15.24666,0.924 -24.96933,10.636 -28.92533,15.516 -0.32933,-0.21067 -0.736,-0.46667 -1.20933,-0.76934 0.0973,-2.096 0.64,-4.37333 1.69466,-6.84266 0,0 7.55067,-15.24134 31.10667,-15.24134 23.55866,0 12.00133,6.65334 37.78266,-2.77333 25.77867,-9.42667 69.78534,6.36933 82.228,9.00933 12.44666,2.636 66.67336,-2.096 75.11866,1.10134 0.092,0.0333 0.184,0.0707 0.2693,0.108" />
      <path
         id="path70"
         style="fill:#ffffff;fill-opacity:1;fill-rule:nonzero;stroke:none;stroke-width:0.133333"
         d="m 986.98798,238.7454 c 0.0627,0.0187 0.12133,0.0373 0.18133,0.056 -13.94,0.1 -44.16,0.26933 -50.27067,-0.056 -4.56133,-0.244 -16.78133,-0.60934 -30.23866,-0.65467 2.81866,-4.68267 71.67866,-1.87733 80.328,0.65467" />
      <path
         id="path72"
         style="fill:#161515;fill-opacity:1;fill-rule:nonzero;stroke:none;stroke-width:0.133333"
         d="m 990.51998,238.08673 c -0.968,1.864 -1.52134,4.004 -1.66134,6.07467 -0.40533,0.21066 -0.832,0.41866 -1.284,0.62133 -10.22533,4.54 -42.23066,8.37733 -59.564,7.904 -17.33466,-0.47333 -25.24266,-1.76267 -24.892,-7.904 0,0 -9.304,-7.88267 -18.28533,-15.432 -0.068,-4.72133 1.58933,-13.116 10.16133,-25.724 14.37067,-21.13467 16.56934,-21.98 11.66534,-10.14533 -4.90267,11.836 5.52533,-4.22667 20.74133,-23.66934 15.216,-19.44399 19.72267,-19.72266 7.32533,6.2 -12.39733,25.924 -3.71066,13.24267 7.16,-1.69066 10.876,-14.93334 21.02,-26.20533 11.15467,-5.072 -9.86133,21.13466 -8.17067,19.444 6.484,0.56266 14.65067,-18.87733 8.868,2.81867 1.336,14.65467 -7.53733,11.83467 5.144,-3.944 14.44267,-12.39733 9.18933,-8.352 -5.83334,14.37466 -6.192,14.924 0.17733,-0.18534 3.10266,-3.22 9.612,-7.316 6.724,-4.22667 9.544,-6.20134 1.652,3.944 -7.152,9.192 -7.824,10.05466 -7.88267,10.14 0.448,-0.288 20.17467,-12.84934 12.66267,-3.09467 -7.59867,9.86133 -7.59867,9.86133 -7.59867,9.86133 0,0 10.78667,-1.128 1.16667,7.32534 -9.62134,8.45333 -0.60134,0 1.93466,5.072 2.536,5.072 -1.93466,9.58133 -1.93466,9.58133 0,0 8.41866,0.39733 8.136,3.15867 -0.28267,2.76 -2.25734,5.85733 -2.25734,5.85733 0,0 10.428,-2.088 5.91734,6.564" />
      <path
         id="path74"
         style="fill:#21222d;fill-opacity:1;fill-rule:nonzero;stroke:none;stroke-width:0.133333"
         d="m 994.68398,189.56806 c 0,0 1.77466,1.188 -3.11067,5.72667 0,0 7.10933,3.08133 -2.224,8.352 0,0 1.336,1.096 -2.66667,3.98667 0,0 8.44534,1.648 2.22267,7.012 0,0 7.99733,3.30533 4.89067,8.25866 0,0 5.92666,3.01067 1.332,10.17467 0,0 1.568,4.22267 -2.32534,8.23733 -0.95066,0.98134 -2.232,1.95334 -3.944,2.84534 0.14,-2.07067 0.69334,-4.21067 1.66134,-6.07467 4.51066,-8.652 -5.91734,-6.564 -5.91734,-6.564 0,0 1.97467,-3.09733 2.25734,-5.85733 0.28266,-2.76134 -8.136,-3.15867 -8.136,-3.15867 0,0 4.47066,-4.50933 1.93466,-9.58133 -2.536,-5.072 -11.556,3.38133 -1.93466,-5.072 9.62,-8.45334 -1.16667,-7.32534 -1.16667,-7.32534 0,0 0,0 7.59867,-9.86133 7.512,-9.75467 -12.21467,2.80667 -12.66267,3.09467 0.0587,-0.0853 0.73067,-0.948 7.88267,-10.14 7.892,-10.14534 5.072,-8.17067 -1.652,-3.944 -6.50934,4.096 -9.43467,7.13066 -9.612,7.316 0.35866,-0.54934 15.38133,-23.276 6.192,-14.924 -9.29867,8.45333 -21.98,24.232 -14.44267,12.39733 7.532,-11.836 13.31467,-33.532 -1.336,-14.65467 -14.65467,18.88134 -16.34533,20.572 -6.484,-0.56266 9.86533,-21.13333 -0.27867,-9.86134 -11.15467,5.072 -10.87066,14.93333 -19.55733,27.61466 -7.16,1.69066 12.39734,-25.92266 7.89067,-25.64399 -7.32533,-6.2 -15.216,19.44267 -25.644,35.50534 -20.74133,23.66934 4.904,-11.83467 2.70533,-10.98934 -11.66534,10.14533 -8.572,12.608 -10.22933,21.00267 -10.16133,25.724 -0.40133,-0.33867 -0.80267,-0.676 -1.2,-1.01067 -0.45733,-0.384 -0.85067,-0.828 -1.18,-1.32266 -6.404,-9.66267 19.18933,-51.60534 29.11067,-59.74134 14.22266,-11.67066 1.82533,13.22934 1.47866,13.93067 0.53734,-0.63333 17.78667,-21.104 27.41067,-36.548 9.78133,-15.68266 12.892,-6.60266 11.556,0 -1.31867,6.55467 -9.64533,21.09067 -9.776,21.37467 0.18133,-0.27467 11.61067,-14.092 18.66933,-30.05333 7.10934,-16.08667 16.00267,-17.828 0,24.27866 0,0 3.89734,-0.76 14.11867,-19.752 10.224,-18.98533 11.66133,-0.0627 -0.33867,23.87733 0,0 8.88934,-3.212 20.44534,-15.59599 11.53862,-12.368 -6.172,18.81333 -12.85867,25.06933 0.62533,-0.44 10.90933,-7.60934 19.52399,-14.012 8.8893,-6.60267 1.78,13.61866 -11.55199,21.04933 0.26667,-0.0547 12.79469,-2.764 4.44267,8.67333" />
      <path
         id="path76"
         style="fill:#21222d;fill-opacity:1;fill-rule:nonzero;stroke:none;stroke-width:0.133333"
         d="m 845.22931,255.77473 c -6.08666,0.0853 -18.90666,1.42 -28.63333,7.12267 0,0 0.87333,-2.59734 5.584,-7.05467 4.712,-4.45867 26.27333,-7.45067 26.27333,-7.45067 3.044,-0.49333 3.30134,2.05067 2.97467,4.292 -0.592,1.21467 -2.15067,3.03467 -6.19867,3.09067" />
      <path
         id="path78"
         style="fill:#161515;fill-opacity:1;fill-rule:nonzero;stroke:none;stroke-width:0.133333"
         d="m 851.65198,263.2214 c -4.84667,-1.48934 -35.056,-0.324 -35.056,-0.324 9.72667,-5.70267 22.54667,-7.03734 28.63333,-7.12267 4.048,-0.056 5.60667,-1.876 6.19867,-3.09067 -0.23867,1.64534 -0.792,3.128 -0.792,3.128 1.676,2.44134 1.016,7.40934 1.016,7.40934" />
      <path
         id="path80"
         style="fill:#21222d;fill-opacity:1;fill-rule:nonzero;stroke:none;stroke-width:0.133333"
         d="m 845.93731,256.7094 c 0,0 -7.88933,0.36266 -11.872,1.24266 -3.98133,0.88 -5.824,1.588 0.12267,1.872 5.94533,0.28267 15.71333,-0.284 11.74933,-3.11466" />
      <path
         id="path82"
         style="fill:#32334e;fill-opacity:1;fill-rule:nonzero;stroke:none;stroke-width:0.133333"
         d="m 846.85731,250.0094 c 0,0 2.328,0.56666 0.79867,1.79333 -1.52933,1.22667 -10.684,1.69867 -16.06267,2.83067 -5.37866,1.132 -6.79466,0.944 -4.71866,0 2.076,-0.944 11.088,-4.436 19.98266,-4.624" />
      <path
         id="path84"
         style="fill:#f4f4f4;fill-opacity:1;fill-rule:nonzero;stroke:none;stroke-width:0.133333"
         d="m 859.31198,248.70406 c 0,3.04934 2.472,5.52 5.52133,5.52 3.04933,0 5.52,-2.47066 5.52,-5.52 0,-3.04933 -2.47067,-5.52133 -5.52,-5.52133 -3.04933,0 -5.52133,2.472 -5.52133,5.52133" />
      <path
         id="path86"
         style="fill:#100f0d;fill-opacity:1;fill-rule:nonzero;stroke:none;stroke-width:0.133333"
         d="m 860.73865,248.7894 c 0,2.53333 2.05466,4.58666 4.588,4.58666 2.53333,0 4.58799,-2.05333 4.58799,-4.58666 0,-2.53334 -2.05466,-4.588 -4.58799,-4.588 -2.53334,0 -4.588,2.05466 -4.588,4.588" />
      <path
         id="path88"
         style="fill:#ffffff;fill-opacity:1;fill-rule:nonzero;stroke:none;stroke-width:0.133333"
         d="m 867.24531,244.6774 c 0,-0.52934 -0.42933,-0.95867 -0.95866,-0.95867 -0.53067,0 -0.96,0.42933 -0.96,0.95867 0,0.53066 0.42933,0.96 0.96,0.96 0.52933,0 0.95866,-0.42934 0.95866,-0.96" />
    </g>
    <g
       id="g643"
       transform="matrix(-0.381,0,0,0.381,2286.9476,-22.283275)">
      <path
         id="path120"
         style="fill:#161515;fill-opacity:1;fill-rule:nonzero;stroke:none;stroke-width:0.133333"
         d="m 1388.3733,252.0054 c -21.3333,0.47333 -48.88,-0.52134 -52.8933,0.0333 -3.9947,0.55467 -34.6627,33.15333 -67.1107,33.15333 -32.4467,0 -29.3347,-10.536 -48.8933,-10.536 -17.232,0 -40.6694,-5.608 -39.9134,-21.164 1.4454,0.928 2.2454,1.408 2.2454,1.408 0,0 14.556,6.84267 22.5573,6.09334 7.9987,-0.75467 18.78,-12.008 22.2787,-14.42134 3.5,-2.41066 16.1453,-2.244 12.8346,-7.82666 -3.3093,-5.58134 71.2867,-2.64267 80.3134,0 9.0266,2.644 3.5866,10.24 18.7546,7.82666 14.4,-2.28933 57.5867,-3.904 72.5734,-4.06266 0.2533,4.01733 -7.2667,9.15333 -22.7467,9.496" />
      <path
         id="path122"
         style="fill:#161515;fill-opacity:1;fill-rule:nonzero;stroke:none;stroke-width:0.133333"
         d="m 1288.372,278.53873 c 0,0 2.2226,6.65333 12.0013,6.65333 9.7787,0 12.416,-10.588 10.6387,-13.54533 -1.7787,-2.95733 -5.0374,-2.21733 -5.0374,-2.21733 0,0 3.704,2.40266 1.9254,4.80533 0,0 -2.5187,-0.4 -3.26,3.03467 -0.74,3.43466 -4,1.58666 -4,1.58666 0,0 -0.9774,-7.39333 -5.304,-7.39333 -4.3267,0 -10.756,2.60267 -6.964,7.076" />
      <path
         id="path124"
         style="fill:#21222d;fill-opacity:1;fill-rule:nonzero;stroke:none;stroke-width:0.133333"
         d="m 1239.4786,238.7454 c 3.3107,5.58266 -9.3346,5.416 -12.8346,7.82666 -3.4987,2.41334 -14.28,13.66667 -22.2787,14.42134 -8.0013,0.74933 -22.5573,-6.09334 -22.5573,-6.09334 0,0 -0.3614,-0.21733 -1.036,-0.63866 3.956,-4.88 13.6786,-14.592 28.9253,-15.516 8.7853,-0.532 19.6267,-0.684 29.7667,-0.65467 -0.124,0.204 -0.124,0.42133 0.015,0.65467" />
      <path
         id="path126"
         style="fill:#21222d;fill-opacity:1;fill-rule:nonzero;stroke:none;stroke-width:0.133333"
         d="m 1411.12,242.5094 c -14.9867,0.15866 -58.1734,1.77333 -72.5734,4.06266 -15.0653,2.39867 -9.7986,-5.08 -18.5733,-7.77066 4.3147,-0.0293 7.0707,-0.056 7.0707,-0.056 0,0 11.8226,5.04666 80.716,0.108 2.1466,0.87866 3.2666,2.192 3.36,3.656" />
      <path
         id="path128"
         style="fill:#32334e;fill-opacity:1;fill-rule:nonzero;stroke:none;stroke-width:0.133333"
         d="m 1407.76,238.8534 c -68.8934,4.93866 -80.716,-0.108 -80.716,-0.108 0,0 -2.756,0.0267 -7.0707,0.056 -0.06,-0.0187 -0.1187,-0.0373 -0.1813,-0.056 -8.6494,-2.532 -77.5094,-5.33734 -80.328,-0.65467 -10.14,-0.0293 -20.9814,0.12267 -29.7667,0.65467 -15.2467,0.924 -24.9693,10.636 -28.9253,15.516 -0.3294,-0.21067 -0.736,-0.46667 -1.2094,-0.76934 0.097,-2.096 0.64,-4.37333 1.6947,-6.84266 0,0 7.5507,-15.24134 31.1067,-15.24134 23.5586,0 12.0013,6.65334 37.7826,-2.77333 25.7787,-9.42667 69.7854,6.36933 82.228,9.00933 12.452,2.636 66.6787,-2.096 75.1187,1.10134 0.093,0.0333 0.1867,0.0707 0.2667,0.108" />
      <path
         id="path130"
         style="fill:#ffffff;fill-opacity:1;fill-rule:nonzero;stroke:none;stroke-width:0.133333"
         d="m 1319.792,238.7454 c 0.063,0.0187 0.1213,0.0373 0.1813,0.056 -13.94,0.1 -44.16,0.26933 -50.2707,-0.056 -4.5613,-0.244 -16.7813,-0.60934 -30.2386,-0.65467 2.8186,-4.68267 71.6786,-1.87733 80.328,0.65467" />
      <path
         id="path132"
         style="fill:#161515;fill-opacity:1;fill-rule:nonzero;stroke:none;stroke-width:0.133333"
         d="m 1365.5466,206.72806 c 0,0 1.16,3.09867 -6.7333,6.19734 -2.3333,0.91733 -4.8267,1.80933 -7.2,2.608 v 0.004 c -5.6533,1.91066 -10.5467,3.30533 -10.5467,3.30533 0,0 4.5334,1.128 -2.52,5.072 -7.0626,3.948 -15.6773,7.94667 -15.6773,7.94667 0,0 11.064,0.072 3.9187,4.37466 0,0 11.8253,1.12 -5.1227,7.92534 -16.9533,6.80533 -64.8693,11.46666 -85.42,2.87866 0,0 -10.8627,-3.876 -19.1173,-10.69866 -2.6667,-2.20134 -5.06,-4.708 -6.7294,-7.49334 -6.8466,-11.41333 39.4907,-25.38266 69.32,-32.96933 29.828,-7.588 13.944,3.804 13.944,3.804 0,0 22.3214,-6.484 39.2294,-6.412 16.908,0.072 5.6546,5.144 5.6546,5.144 0,0 23.9334,-2.676 35.2,0.70533 11.28,3.38134 -8.2,7.608 -8.2,7.608" />
      <path
         id="path134"
         style="fill:#21222d;fill-opacity:1;fill-rule:nonzero;stroke:none;stroke-width:0.133333"
         d="m 1365.5466,206.72806 c 0,0 1.16,3.09867 -6.7333,6.19734 -2.3333,0.91733 -4.8267,1.80933 -7.2,2.608 13.6267,-7.24934 4.6667,-7.39734 4.6667,-7.39734 0,0 16.3466,-5.91733 -6.2,-5.072 -22.544,0.84534 -33.2507,8.73734 -25.6254,3.38134 7.6294,-5.35467 1.6734,-6.76267 -8.7533,-5.91734 -10.424,0.84534 -39.3093,8.73734 -39.3093,8.73734 0,0 8.3133,-7.04667 5.4946,-7.04667 -2.8146,0 -57.764,15.216 -64.252,24.516 -2.3706,3.40267 -1.952,6.74533 -0.5066,9.60667 -2.6667,-2.20134 -5.06,-4.708 -6.7294,-7.49334 -6.8466,-11.41333 39.4907,-25.38266 69.32,-32.96933 29.828,-7.588 13.944,3.804 13.944,3.804 0,0 22.3214,-6.484 39.2294,-6.412 16.908,0.072 5.6546,5.144 5.6546,5.144 0,0 23.9334,-2.676 35.2,0.70533 11.28,3.38134 -8.2,7.608 -8.2,7.608" />
      <path
         id="path136"
         style="fill:#21222d;fill-opacity:1;fill-rule:nonzero;stroke:none;stroke-width:0.133333"
         d="m 1178.0333,255.77473 c -6.0867,0.0853 -18.9067,1.42 -28.6333,7.12267 0,0 0.8733,-2.59734 5.584,-7.05467 4.712,-4.45867 26.2733,-7.45067 26.2733,-7.45067 3.044,-0.49333 3.3013,2.05067 2.9747,4.292 -0.592,1.21467 -2.1507,3.03467 -6.1987,3.09067" />
      <path
         id="path138"
         style="fill:#161515;fill-opacity:1;fill-rule:nonzero;stroke:none;stroke-width:0.133333"
         d="m 1184.456,263.2214 c -4.8467,-1.48934 -35.056,-0.324 -35.056,-0.324 9.7266,-5.70267 22.5466,-7.03734 28.6333,-7.12267 4.048,-0.056 5.6067,-1.876 6.1987,-3.09067 -0.2387,1.64534 -0.792,3.128 -0.792,3.128 1.676,2.44134 1.016,7.40934 1.016,7.40934" />
      <path
         id="path140"
         style="fill:#21222d;fill-opacity:1;fill-rule:nonzero;stroke:none;stroke-width:0.133333"
         d="m 1178.7413,256.7094 c 0,0 -7.8893,0.36266 -11.8707,1.24266 -3.9826,0.88 -5.8253,1.588 0.1214,1.872 5.9453,0.28267 15.7133,-0.284 11.7493,-3.11466" />
      <path
         id="path142"
         style="fill:#32334e;fill-opacity:1;fill-rule:nonzero;stroke:none;stroke-width:0.133333"
         d="m 1179.6613,250.0094 c 0,0 2.328,0.56666 0.7987,1.79333 -1.5294,1.22667 -10.684,1.69867 -16.0627,2.83067 -5.3787,1.132 -6.7947,0.944 -4.7187,0 2.076,-0.944 11.088,-4.436 19.9827,-4.624" />
      <path
         id="path144"
         style="fill:#f4f4f4;fill-opacity:1;fill-rule:nonzero;stroke:none;stroke-width:0.133333"
         d="m 1192.116,248.70406 c 0,3.04934 2.472,5.52 5.5213,5.52 3.0493,0 5.52,-2.47066 5.52,-5.52 0,-3.04933 -2.4707,-5.52133 -5.52,-5.52133 -3.0493,0 -5.5213,2.472 -5.5213,5.52133" />
      <path
         id="path146"
         style="fill:#100f0d;fill-opacity:1;fill-rule:nonzero;stroke:none;stroke-width:0.133333"
         d="m 1192.116,248.7894 c 0,2.53333 2.0546,4.58666 4.588,4.58666 2.5333,0 4.5866,-2.05333 4.5866,-4.58666 0,-2.53334 -2.0533,-4.588 -4.5866,-4.588 -2.5334,0 -4.588,2.05466 -4.588,4.588" />
      <path
         id="path148"
         style="fill:#ffffff;fill-opacity:1;fill-rule:nonzero;stroke:none;stroke-width:0.133333"
         d="m 1200.0493,244.6774 c 0,-0.52934 -0.4293,-0.95867 -0.9587,-0.95867 -0.5306,0 -0.96,0.42933 -0.96,0.95867 0,0.53066 0.4294,0.96 0.96,0.96 0.5294,0 0.9587,-0.42934 0.9587,-0.96" />
    </g>
    <g
       id="g660"
       transform="matrix(-0.381,0,0,0.381,2213.4366,-22.283277)">
      <path
         id="path150"
         style="fill:#161515;fill-opacity:1;fill-rule:nonzero;stroke:none;stroke-width:0.133333"
         d="m 1751,252.0054 c -21.3334,0.47333 -48.8934,-0.52134 -52.8934,0.0333 -4,0.55467 -34.6666,33.15333 -67.12,33.15333 -32.44,0 -29.3333,-10.536 -48.8933,-10.536 -17.2267,0 -40.6667,-5.608 -39.9067,-21.164 1.44,0.928 2.24,1.408 2.24,1.408 0,0 14.56,6.84267 22.56,6.09334 8,-0.75467 18.7734,-12.008 22.28,-14.42134 3.4934,-2.41066 16.1467,-2.244 12.8267,-7.82666 -3.3067,-5.58134 71.2933,-2.64267 80.32,0 9.0267,2.644 3.5867,10.24 18.7467,7.82666 14.4,-2.28933 57.6,-3.904 72.5866,-4.06266 0.2534,4.01733 -7.28,9.15333 -22.7466,9.496" />
      <path
         id="path152"
         style="fill:#161515;fill-opacity:1;fill-rule:nonzero;stroke:none;stroke-width:0.133333"
         d="m 1650.9866,278.53873 c 0,0 2.2267,6.65333 12.0134,6.65333 9.7733,0 12.4133,-10.588 10.6266,-13.54533 -1.7733,-2.95733 -5.0266,-2.21733 -5.0266,-2.21733 0,0 3.6933,2.40266 1.92,4.80533 0,0 -2.52,-0.4 -3.2534,3.03467 -0.7466,3.43466 -4,1.58666 -4,1.58666 0,0 -0.9866,-7.39333 -5.3066,-7.39333 -4.3334,0 -10.76,2.60267 -6.9734,7.076" />
      <path
         id="path154"
         style="fill:#21222d;fill-opacity:1;fill-rule:nonzero;stroke:none;stroke-width:0.133333"
         d="m 1602.0933,238.7454 c 3.32,5.58266 -9.3333,5.416 -12.8267,7.82666 -3.5066,2.41334 -14.28,13.66667 -22.28,14.42134 -8,0.74933 -22.56,-6.09334 -22.56,-6.09334 0,0 -0.36,-0.21733 -1.04,-0.63866 3.96,-4.88 13.68,-14.592 28.9334,-15.516 8.7866,-0.532 19.6266,-0.684 29.76,-0.65467 -0.12,0.204 -0.12,0.42133 0.013,0.65467" />
      <path
         id="path156"
         style="fill:#21222d;fill-opacity:1;fill-rule:nonzero;stroke:none;stroke-width:0.133333"
         d="m 1773.7466,242.5094 c -14.9866,0.15866 -58.1866,1.77333 -72.5866,4.06266 -15.0534,2.39867 -9.7867,-5.08 -18.56,-7.77066 4.3066,-0.0293 7.0666,-0.056 7.0666,-0.056 0,0 11.8267,5.04666 80.72,0.108 2.1467,0.87866 3.2667,2.192 3.36,3.656" />
      <path
         id="path158"
         style="fill:#32334e;fill-opacity:1;fill-rule:nonzero;stroke:none;stroke-width:0.133333"
         d="m 1770.3866,238.8534 c -68.8933,4.93866 -80.72,-0.108 -80.72,-0.108 0,0 -2.76,0.0267 -7.0666,0.056 -0.067,-0.0187 -0.12,-0.0373 -0.1867,-0.056 -8.6533,-2.532 -77.5067,-5.33734 -80.3333,-0.65467 -10.1334,-0.0293 -20.9734,0.12267 -29.76,0.65467 -15.2534,0.924 -24.9734,10.636 -28.9334,15.516 -0.32,-0.21067 -0.7333,-0.46667 -1.2,-0.76934 0.093,-2.096 0.64,-4.37333 1.6934,-6.84266 0,0 7.5466,-15.24134 31.1066,-15.24134 23.56,0 12,6.65334 37.7867,-2.77333 25.7733,-9.42667 69.7733,6.36933 82.2267,9.00933 12.44,2.636 66.6666,-2.096 75.12,1.10134 0.08,0.0333 0.1733,0.0707 0.2666,0.108" />
      <path
         id="path160"
         style="fill:#ffffff;fill-opacity:1;fill-rule:nonzero;stroke:none;stroke-width:0.133333"
         d="m 1682.4133,238.7454 c 0.067,0.0187 0.12,0.0373 0.1867,0.056 -13.9467,0.1 -44.1734,0.26933 -50.28,-0.056 -4.56,-0.244 -16.7734,-0.60934 -30.24,-0.65467 2.8266,-4.68267 71.68,-1.87733 80.3333,0.65467" />
      <path
         id="path162"
         style="fill:#161515;fill-opacity:1;fill-rule:nonzero;stroke:none;stroke-width:0.133333"
         d="m 1752.6533,222.62673 c -0.3067,0.39733 -1.6133,0.84933 -4.0533,1.38267 -10.36,2.26933 -27.3734,3.52 -27.3734,3.52 0,0 9.2667,5.15733 -1.3866,6.79333 -10.6534,1.63067 -17.3334,2.30267 -17.3334,2.30267 0,0 17.2,1.28533 5.4267,5.892 -11.7867,4.612 -43.92,7.524 -102.44,4.70133 0,0 -23.9867,-1.928 -31.5467,-6.37467 1.68,-3.24666 6.4,-8.00133 19.6,-10.288 21.1334,-3.664 88.76,-11.75066 76.08,-4.89066 0,0 63.28,-4.56934 83.0267,-3.03867" />
      <path
         id="path164"
         style="fill:#21222d;fill-opacity:1;fill-rule:nonzero;stroke:none;stroke-width:0.133333"
         d="m 1752.6533,222.62673 c -19.7467,-1.53067 -83.0267,3.03867 -83.0267,3.03867 12.68,-6.86 -54.9466,1.22666 -76.08,4.89066 -13.2,2.28667 -17.92,7.04134 -19.6,10.288 -0.84,-0.49466 -1.4666,-1.01866 -1.8533,-1.572 -3.8,-5.56266 4.5467,-11.624 42.8667,-16.37066 38.32,-4.74667 66.2933,-8.25067 64.64,-3.216 0,0 26.7333,-1.22267 48.0666,0.004 16.2934,0.93733 25.9734,1.644 24.9867,2.93733" />
      <path
         id="path166"
         style="fill:#21222d;fill-opacity:1;fill-rule:nonzero;stroke:none;stroke-width:0.133333"
         d="m 1540.6533,255.77473 c -6.08,0.0853 -18.9067,1.42 -28.64,7.12267 0,0 0.88,-2.59734 5.5867,-7.05467 4.72,-4.45867 26.28,-7.45067 26.28,-7.45067 3.04,-0.49333 3.2933,2.05067 2.9733,4.292 -0.5867,1.21467 -2.1467,3.03467 -6.2,3.09067" />
      <path
         id="path168"
         style="fill:#161515;fill-opacity:1;fill-rule:nonzero;stroke:none;stroke-width:0.133333"
         d="m 1547.08,263.2214 c -4.8534,-1.48934 -35.0667,-0.324 -35.0667,-0.324 9.7333,-5.70267 22.56,-7.03734 28.64,-7.12267 4.0533,-0.056 5.6133,-1.876 6.2,-3.09067 -0.24,1.64534 -0.8,3.128 -0.8,3.128 1.68,2.44134 1.0267,7.40934 1.0267,7.40934" />
      <path
         id="path170"
         style="fill:#21222d;fill-opacity:1;fill-rule:nonzero;stroke:none;stroke-width:0.133333"
         d="m 1541.36,256.7094 c 0,0 -7.8934,0.36266 -11.8667,1.24266 -3.9867,0.88 -5.8267,1.588 0.12,1.872 5.9467,0.28267 15.7067,-0.284 11.7467,-3.11466" />
      <path
         id="path172"
         style="fill:#32334e;fill-opacity:1;fill-rule:nonzero;stroke:none;stroke-width:0.133333"
         d="m 1542.28,250.0094 c 0,0 2.3333,0.56666 0.8,1.79333 -1.5334,1.22667 -10.68,1.69867 -16.0667,2.83067 -5.3733,1.132 -6.7867,0.944 -4.72,0 2.08,-0.944 11.0933,-4.436 19.9867,-4.624" />
      <path
         id="path174"
         style="fill:#f4f4f4;fill-opacity:1;fill-rule:nonzero;stroke:none;stroke-width:0.133333"
         d="m 1554.7333,248.70406 c 0,3.04934 2.48,5.52 5.52,5.52 3.0533,0 5.52,-2.47066 5.52,-5.52 0,-3.04933 -2.4667,-5.52133 -5.52,-5.52133 -3.04,0 -5.52,2.472 -5.52,5.52133" />
      <path
         id="path176"
         style="fill:#100f0d;fill-opacity:1;fill-rule:nonzero;stroke:none;stroke-width:0.133333"
         d="m 1554.7333,248.7894 c 0,2.53333 2.0533,4.58666 4.5867,4.58666 2.5333,0 4.5866,-2.05333 4.5866,-4.58666 0,-2.53334 -2.0533,-4.588 -4.5866,-4.588 -2.5334,0 -4.5867,2.05466 -4.5867,4.588" />
      <path
         id="path178"
         style="fill:#ffffff;fill-opacity:1;fill-rule:nonzero;stroke:none;stroke-width:0.133333"
         d="m 1562.6666,244.6774 c 0,-0.52934 -0.4266,-0.95867 -0.96,-0.95867 -0.52,0 -0.96,0.42933 -0.96,0.95867 0,0.53066 0.44,0.96 0.96,0.96 0.5334,0 0.96,-0.42934 0.96,-0.96" />
    </g>
    <g
       id="g782"
       transform="matrix(-0.381,0,0,0.381,1856.1397,-321.70137)">
      <path
         id="path180"
         style="fill:#161515;fill-opacity:1;fill-rule:nonzero;stroke:none;stroke-width:0.133333"
         d="m 1368.7669,1037.8796 c -21.3333,0.4734 -48.892,-0.5213 -52.8933,0.033 -4,0.5547 -34.668,33.1534 -67.1174,33.1534 -32.4453,0 -29.3346,-10.536 -48.892,-10.536 -17.232,0 -40.6693,-5.608 -39.9146,-21.164 1.4466,0.928 2.2466,1.408 2.2466,1.408 0,0 14.556,6.8426 22.5574,6.092 7.9973,-0.7534 18.7786,-12.0067 22.2786,-14.4214 3.5,-2.4093 16.144,-2.244 12.8347,-7.8253 -3.3107,-5.5827 71.2867,-2.644 80.3133,0 9.0267,2.6427 3.5854,10.24 18.752,7.8253 14.3987,-2.288 57.5934,-3.9026 72.5787,-4.0626 0.252,4.0186 -7.272,9.1533 -22.744,9.4973" />
      <path
         id="path182"
         style="fill:#161515;fill-opacity:1;fill-rule:nonzero;stroke:none;stroke-width:0.133333"
         d="m 1268.7602,1064.413 c 0,0 2.2214,6.6533 12,6.6533 9.7787,0 12.4174,-10.588 10.6387,-13.5453 -1.7773,-2.9574 -5.0373,-2.2187 -5.0373,-2.2187 0,0 3.704,2.4027 1.9266,4.8067 0,0 -2.5186,-0.4 -3.26,3.0346 -0.7413,3.4347 -4,1.5854 -4,1.5854 0,0 -0.9786,-7.3934 -5.3053,-7.3934 -4.3267,0 -10.756,2.6027 -6.9627,7.0774" />
      <path
         id="path184"
         style="fill:#21222d;fill-opacity:1;fill-rule:nonzero;stroke:none;stroke-width:0.133333"
         d="m 1219.8669,1024.6196 c 3.3093,5.5814 -9.3347,5.416 -12.8347,7.8254 -3.5,2.4146 -14.2813,13.668 -22.2786,14.4213 -8.0014,0.7507 -22.5574,-6.092 -22.5574,-6.092 0,0 -0.3613,-0.2187 -1.0373,-0.64 3.956,-4.8787 13.6787,-14.5907 28.9253,-15.5147 8.7867,-0.532 19.6267,-0.684 29.768,-0.6546 -0.1253,0.204 -0.1253,0.4213 0.015,0.6546" />
      <path
         id="path186"
         style="fill:#21222d;fill-opacity:1;fill-rule:nonzero;stroke:none;stroke-width:0.133333"
         d="m 1391.5109,1028.3823 c -14.9853,0.16 -58.18,1.7747 -72.5787,4.0627 -15.0626,2.4 -9.7973,-5.0787 -18.572,-7.7707 4.3147,-0.029 7.0707,-0.055 7.0707,-0.055 0,0 11.828,5.0453 80.72,0.1067 2.1453,0.88 3.268,2.192 3.36,3.656" />
      <path
         id="path188"
         style="fill:#32334e;fill-opacity:1;fill-rule:nonzero;stroke:none;stroke-width:0.133333"
         d="m 1388.1509,1024.7263 c -68.892,4.9387 -80.72,-0.1067 -80.72,-0.1067 0,0 -2.756,0.025 -7.0707,0.055 -0.059,-0.017 -0.1173,-0.036 -0.18,-0.055 -8.6506,-2.532 -77.5106,-5.3386 -80.328,-0.6546 -10.1413,-0.029 -20.9813,0.1226 -29.768,0.6546 -15.2466,0.924 -24.9693,10.636 -28.9253,15.5147 -0.3293,-0.2107 -0.7347,-0.4653 -1.2093,-0.768 0.099,-2.096 0.64,-4.3733 1.696,-6.8427 0,0 7.5506,-15.2426 31.1053,-15.2426 23.56,0 12.0027,6.6546 37.784,-2.772 25.7787,-9.4267 69.784,6.3693 82.228,9.0093 12.4453,2.6347 66.6733,-2.096 75.1187,1.1013 0.092,0.033 0.184,0.069 0.2693,0.1067" />
      <path
         id="path190"
         style="fill:#161515;fill-opacity:1;fill-rule:nonzero;stroke:none;stroke-width:0.133333"
         d="m 1300.1802,1024.6196 c 0.063,0.019 0.1214,0.037 0.18,0.055 -13.9386,0.1 -44.16,0.2707 -50.2706,-0.055 -4.56,-0.244 -16.7814,-0.6106 -30.2374,-0.6546 2.8174,-4.684 71.6774,-1.8774 80.328,0.6546" />
      <path
         id="path192"
         style="fill:#161515;fill-opacity:1;fill-rule:nonzero;stroke:none;stroke-width:0.133333"
         d="m 1345.9349,1080.5743 c 0,0 1.1587,-3.4267 -6.7333,-6.8547 -2.328,-1.0146 -4.8307,-2.0013 -7.1974,-2.8853 0,0 0,0 -0.01,0 -5.6506,-2.1133 -10.5453,-3.6573 -10.5453,-3.6573 0,0 4.544,-1.248 -2.5187,-5.6107 -7.0586,-4.3667 -15.6733,-8.7907 -15.6733,-8.7907 0,0 11.0613,-0.08 3.9187,-4.84 0,0 11.8266,-1.2386 -5.124,-8.7666 -16.9534,-7.5294 -64.868,-12.6867 -85.4187,-3.1854 0,0 -10.8627,4.288 -19.1187,11.8347 -2.6666,2.4373 -5.0586,5.2093 -6.728,8.2907 -6.848,12.6253 39.4907,28.08 69.3187,36.4733 29.8293,8.3933 13.944,-4.208 13.944,-4.208 0,0 22.3227,7.172 39.2293,7.0933 16.908,-0.08 5.652,-5.6906 5.652,-5.6906 0,0 23.936,2.96 35.2094,-0.7814 11.268,-3.7413 -8.2054,-8.4173 -8.2054,-8.4173" />
      <path
         id="path194"
         style="fill:#21222d;fill-opacity:1;fill-rule:nonzero;stroke:none;stroke-width:0.133333"
         d="m 1212.7949,1030.0916 c 0,0 14.604,0.1414 7.6187,5.168 -6.984,5.0267 -32.7067,11.6187 -20.5494,23.8934 12.156,12.276 71.6134,30.3053 64.8494,23.7493 -6.7627,-6.556 -11.8347,-9.288 -11.8347,-9.288 0,0 24.516,9.344 41.1413,10.6813 16.6254,1.3387 9.58,-5.764 9.58,-5.764 0,0 10.4267,5.1894 27.3334,4.3707 16.908,-0.82 -12.116,-6.284 -12.116,-6.284 0,0 14.652,1.64 7.044,-3.824 -7.608,-5.4627 -22.824,-8.468 -22.824,-8.468 0,0 8.4533,-0.712 -1.128,-7.0493 -9.58,-6.336 -13.5254,-7.156 -13.5254,-7.156 0,0 17.1894,-0.3934 10.4267,-4.1574 -6.764,-3.7653 -6.764,-3.7653 -6.764,-3.7653 0,0 17.4453,3.9267 12.1053,-2.8173 -5.3413,-6.7427 -9.0053,-8.36 -9.0053,-8.36 0,0 7.632,2.4813 13.256,0 5.624,-2.4814 -0.972,-6.6814 -0.972,-6.6814 0,0 -34.608,-10.4706 -60.188,-8.6386 -25.5787,1.832 -25.924,7.812 -34.096,8.824 -8.172,1.0106 -2.1333,5.492 -0.352,5.5666" />
      <path
         id="path196"
         style="fill:#21222d;fill-opacity:1;fill-rule:nonzero;stroke:none;stroke-width:0.133333"
         d="m 1158.4216,1041.649 c -6.0867,0.085 -18.9067,1.42 -28.6347,7.1226 0,0 0.8733,-2.5986 5.5853,-7.056 4.712,-4.4573 26.272,-7.4506 26.272,-7.4506 3.0454,-0.492 3.3027,2.0506 2.976,4.2933 -0.592,1.2133 -2.152,3.0347 -6.1986,3.0907" />
      <path
         id="path198"
         style="fill:#161515;fill-opacity:1;fill-rule:nonzero;stroke:none;stroke-width:0.133333"
         d="m 1164.8429,1049.0943 c -4.8467,-1.4893 -35.056,-0.3227 -35.056,-0.3227 9.728,-5.7026 22.548,-7.0373 28.6347,-7.1226 4.0466,-0.056 5.6066,-1.8774 6.1986,-3.0907 -0.24,1.644 -0.7933,3.128 -0.7933,3.128 1.676,2.4413 1.016,7.408 1.016,7.408" />
      <path
         id="path200"
         style="fill:#21222d;fill-opacity:1;fill-rule:nonzero;stroke:none;stroke-width:0.133333"
         d="m 1159.1296,1042.5836 c 0,0 -7.8894,0.3627 -11.872,1.2427 -3.9827,0.88 -5.824,1.588 0.1213,1.8707 5.9467,0.284 15.7133,-0.2827 11.7507,-3.1134" />
      <path
         id="path202"
         style="fill:#32334e;fill-opacity:1;fill-rule:nonzero;stroke:none;stroke-width:0.133333"
         d="m 1160.0496,1035.8823 c 0,0 2.328,0.5667 0.7973,1.7933 -1.5293,1.2267 -10.6827,1.6987 -16.0627,2.832 -5.3786,1.132 -6.7933,0.9427 -4.7186,0 2.0773,-0.944 11.0893,-4.436 19.984,-4.6253" />
      <path
         id="path204"
         style="fill:#f4f4f4;fill-opacity:1;fill-rule:nonzero;stroke:none;stroke-width:0.133333"
         d="m 1172.5042,1034.577 c 0,3.0493 2.472,5.5213 5.52,5.5213 3.0494,0 5.5214,-2.472 5.5214,-5.5213 0,-3.048 -2.472,-5.52 -5.5214,-5.52 -3.048,0 -5.52,2.472 -5.52,5.52" />
      <path
         id="path206"
         style="fill:#100f0d;fill-opacity:1;fill-rule:nonzero;stroke:none;stroke-width:0.133333"
         d="m 1172.5042,1034.6623 c 0,2.5333 2.0534,4.588 4.588,4.588 2.5334,0 4.5867,-2.0547 4.5867,-4.588 0,-2.5333 -2.0533,-4.5867 -4.5867,-4.5867 -2.5346,0 -4.588,2.0534 -4.588,4.5867" />
      <path
         id="path208"
         style="fill:#ffffff;fill-opacity:1;fill-rule:nonzero;stroke:none;stroke-width:0.133333"
         d="m 1180.4362,1030.5516 c 0,-0.5293 -0.4293,-0.96 -0.9586,-0.96 -0.5294,0 -0.9587,0.4307 -0.9587,0.96 0,0.5294 0.4293,0.9587 0.9587,0.9587 0.5293,0 0.9586,-0.4293 0.9586,-0.9587" />
    </g>
    <g
       id="g765"
       transform="matrix(-0.381,0,0,0.381,1774.7211,-321.70137)">
      <path
         id="path210"
         style="fill:#161515;fill-opacity:1;fill-rule:nonzero;stroke:none;stroke-width:0.133333"
         d="m 1710.6269,1037.8796 c -21.3333,0.4734 -48.8933,-0.5213 -52.8933,0.033 -4,0.5547 -34.668,33.1534 -67.1174,33.1534 -32.4466,0 -29.3346,-10.536 -48.8933,-10.536 -17.232,0 -40.6693,-5.608 -39.9133,-21.164 1.4453,0.928 2.2466,1.408 2.2466,1.408 0,0 14.556,6.8426 22.5574,6.092 7.9973,-0.7534 18.7786,-12.0067 22.2773,-14.4214 3.5,-2.4093 16.1453,-2.244 12.8347,-7.8253 -3.3094,-5.5827 71.288,-2.644 80.3133,0 9.0267,2.6427 3.5867,10.24 18.7533,7.8253 14.3987,-2.288 57.5934,-3.9026 72.5787,-4.0626 0.252,4.0186 -7.272,9.1533 -22.744,9.4973" />
      <path
         id="path212"
         style="fill:#161515;fill-opacity:1;fill-rule:nonzero;stroke:none;stroke-width:0.133333"
         d="m 1610.6189,1064.413 c 0,0 2.2227,6.6533 12.0013,6.6533 9.7787,0 12.4174,-10.588 10.6387,-13.5453 -1.7773,-2.9574 -5.0373,-2.2187 -5.0373,-2.2187 0,0 3.704,2.4027 1.9253,4.8067 0,0 -2.5187,-0.4 -3.2587,3.0346 -0.7413,3.4347 -4.0013,1.5854 -4.0013,1.5854 0,0 -0.9773,-7.3934 -5.304,-7.3934 -4.3267,0 -10.756,2.6027 -6.964,7.0774" />
      <path
         id="path214"
         style="fill:#21222d;fill-opacity:1;fill-rule:nonzero;stroke:none;stroke-width:0.133333"
         d="m 1561.7256,1024.6196 c 3.3106,5.5814 -9.3347,5.416 -12.8347,7.8254 -3.4987,2.4146 -14.28,13.668 -22.2773,14.4213 -8.0014,0.7507 -22.5574,-6.092 -22.5574,-6.092 0,0 -0.3626,-0.2187 -1.0373,-0.64 3.956,-4.8787 13.6787,-14.5907 28.9253,-15.5147 8.7867,-0.532 19.6267,-0.684 29.7667,-0.6546 -0.124,0.204 -0.124,0.4213 0.015,0.6546" />
      <path
         id="path216"
         style="fill:#21222d;fill-opacity:1;fill-rule:nonzero;stroke:none;stroke-width:0.133333"
         d="m 1733.3709,1028.3823 c -14.9853,0.16 -58.18,1.7747 -72.5787,4.0627 -15.0626,2.4 -9.7973,-5.0787 -18.572,-7.7707 4.3147,-0.029 7.0707,-0.055 7.0707,-0.055 0,0 11.8267,5.0453 80.72,0.1067 2.1453,0.88 3.268,2.192 3.36,3.656" />
      <path
         id="path218"
         style="fill:#32334e;fill-opacity:1;fill-rule:nonzero;stroke:none;stroke-width:0.133333"
         d="m 1730.0109,1024.7263 c -68.8933,4.9387 -80.72,-0.1067 -80.72,-0.1067 0,0 -2.756,0.025 -7.0707,0.055 -0.059,-0.017 -0.1186,-0.036 -0.1813,-0.055 -8.6493,-2.532 -77.5093,-5.3386 -80.328,-0.6546 -10.14,-0.029 -20.98,0.1226 -29.7667,0.6546 -15.2466,0.924 -24.9693,10.636 -28.9253,15.5147 -0.3293,-0.2107 -0.736,-0.4653 -1.2093,-0.768 0.097,-2.096 0.64,-4.3733 1.6946,-6.8427 0,0 7.5507,-15.2426 31.1067,-15.2426 23.5587,0 12.0013,6.6546 37.7827,-2.772 25.7786,-9.4267 69.7853,6.3693 82.228,9.0093 12.4466,2.6347 66.6733,-2.096 75.1186,1.1013 0.092,0.033 0.184,0.069 0.2707,0.1067" />
      <path
         id="path220"
         style="fill:#161515;fill-opacity:1;fill-rule:nonzero;stroke:none;stroke-width:0.133333"
         d="m 1642.0389,1024.6196 c 0.063,0.019 0.1227,0.037 0.1813,0.055 -13.94,0.1 -44.16,0.2707 -50.2706,-0.055 -4.5614,-0.244 -16.7814,-0.6106 -30.2387,-0.6546 2.8187,-4.684 71.6787,-1.8774 80.328,0.6546" />
      <path
         id="path222"
         style="fill:#161515;fill-opacity:1;fill-rule:nonzero;stroke:none;stroke-width:0.133333"
         d="m 1641.6762,1031.3476 c -1.248,-1.7466 -2.1293,-3.836 -2.5893,-5.92 -0.4347,-0.152 -0.8893,-0.2986 -1.368,-0.436 -10.8147,-3.06 -43.048,-2.0986 -60.1067,1.0147 -17.06,3.1133 -24.6746,5.624 -23.3693,11.812 0,0 -7.964,9.4227 -15.664,18.4573 0.6707,4.808 3.6187,13.0867 14.06,24.5974 17.504,19.292 19.8093,19.8173 13.1147,8.536 -6.6934,-11.2814 6.12,3.456 24.196,20.9026 18.076,17.4454 22.5733,17.0454 6.272,-7.4133 -16.3014,-24.4587 -5.736,-12.8933 7.3413,0.6307 13.0813,13.5226 24.868,23.436 11.8173,3.46 -13.0466,-19.9774 -11.112,-18.5174 6.32,-1.556 17.428,16.956 8.3254,-4.212 -0.968,-15.0947 -9.296,-10.8813 5.7014,3.2267 16.212,10.404 10.3867,7.092 -8.0106,-13.7213 -8.4506,-14.2253 0.204,0.1626 3.5693,2.8026 10.6426,5.976 7.3067,3.2733 10.4014,4.8506 1.0174,-4.2587 -8.504,-8.256 -9.3027,-9.0293 -9.3747,-9.1067 0.488,0.224 21.9467,9.9934 13,1.2214 -9.052,-8.8667 -9.052,-8.8667 -9.052,-8.8667 0,0 10.8387,-0.492 0.01,-7.62 -10.828,-7.1293 -0.5933,0.091 1.1227,-5.448 1.7146,-5.54 -3.4107,-9.444 -3.4107,-9.444 0,0 8.2613,-1.6813 7.5493,-4.444 -0.7106,-2.7613 -3.1453,-5.6093 -3.1453,-5.6093 0,0 10.6333,0.5373 4.824,-7.5694" />
      <path
         id="path224"
         style="fill:#161515;fill-opacity:1;fill-rule:nonzero;stroke:none;stroke-width:0.133333"
         d="m 1653.3669,1080.0183 c 0,0 1.5693,-1.476 -3.9693,-5.348 0,0 6.5466,-4.2107 -3.5014,-8.1493 0,0 1.1494,-1.3147 -3.2586,-3.644 0,0 8.0906,-2.9587 1.1026,-7.464 0,0 7.388,-4.5734 3.544,-9.1347 0,0 5.388,-3.9587 -0.272,-10.54 0,0 0.8907,-4.5293 -3.584,-8.0187 -1.0933,-0.852 -2.5106,-1.6453 -4.3413,-2.292 0.46,2.084 1.3413,4.1734 2.5893,5.92 5.8094,8.1067 -4.824,7.5694 -4.824,7.5694 0,0 2.4347,2.848 3.1454,5.6093 0.712,2.7627 -7.5494,4.444 -7.5494,4.444 0,0 5.1254,3.904 3.4107,9.444 -1.716,5.5387 -11.9507,-1.6813 -1.1227,5.448 10.8294,7.128 -0.01,7.62 -0.01,7.62 0,0 0,0 9.052,8.8667 8.9467,8.772 -12.512,-0.9974 -13,-1.2214 0.072,0.077 0.8707,0.8507 9.3747,9.1067 9.384,9.1093 6.2893,7.532 -1.0173,4.2587 -7.0734,-3.1734 -10.4387,-5.8134 -10.6427,-5.976 0.44,0.504 18.8373,21.3173 8.4507,14.2253 -10.5107,-7.1773 -25.508,-21.2853 -16.212,-10.404 9.2933,10.8827 18.396,32.0507 0.968,15.0947 -17.432,-16.9614 -19.3667,-18.4214 -6.32,1.556 13.0506,19.976 1.264,10.0626 -11.8174,-3.46 -13.0773,-13.524 -23.6426,-25.0894 -7.3413,-0.6307 16.3013,24.4587 11.804,24.8587 -6.272,7.4133 -18.076,-17.4466 -30.8893,-32.184 -24.196,-20.9026 6.6947,11.2813 4.3893,10.756 -13.1147,-8.536 -10.4413,-11.5107 -13.3893,-19.7894 -14.06,-24.5974 -0.344,0.4054 -0.688,0.8094 -1.028,1.2094 -0.392,0.46 -0.7106,0.9706 -0.9586,1.5226 -4.8214,10.792 27.024,49.524 38.0986,56.2854 15.8814,9.6986 -0.26,-13.72 -0.712,-14.38 0.6294,0.5626 20.8747,18.7426 32.7987,32.976 12.116,14.4493 13.7733,4.7506 11.4227,-1.7547 -2.328,-6.4613 -12.8267,-19.968 -13.0014,-20.236 0.2227,0.252 13.6774,12.556 23.1454,27.7027 9.5386,15.2666 18.6013,15.6853 -3.7907,-24.6707 0,0 3.9707,0.1813 17.0387,17.9267 13.0693,17.74 11.536,-1.7067 -4.0627,-24.212 0,0 9.288,1.9146 22.6427,12.744 13.336,10.8146 -9.036,-18.18 -16.6227,-23.5214 0.6867,0.352 11.9707,6.0747 21.4853,11.2734 9.816,5.3586 -0.368,-14.108 -14.704,-19.6347 0.2707,0.016 13.0774,0.8653 3.036,-9.488" />
      <path
         id="path226"
         style="fill:#21222d;fill-opacity:1;fill-rule:nonzero;stroke:none;stroke-width:0.133333"
         d="m 1554.6549,1030.5516 c 0,0 8.956,-1.1426 3.6027,6.4654 -5.3547,7.608 -18.428,17.8773 -15.78,26.1266 2.6466,8.2494 17.168,33.372 24.5253,32.532 7.356,-0.84 -5.292,-18.3626 -5.292,-18.3626 0,0 26.644,26.8266 30.5773,26.2053 3.9334,-0.62 -10.0786,-20.5707 -10.0786,-20.5707 0,0 26.824,27.8974 33.7,28.4614 6.8773,0.564 -9.748,-22.2614 -9.748,-22.2614 0,0 18.088,14.0947 21.4426,11.1334 3.3534,-2.9614 -11.6946,-15.36 -11.6946,-15.36 0,0 11.488,4.0133 17.8653,3.6626 6.3787,-0.3493 -6.1987,-11.5533 -6.1987,-11.5533 0,0 17.8854,8.0547 12.324,-0.4813 -5.56,-8.536 -5.56,-8.536 -5.56,-8.536 0,0 5.6347,-2.8174 -1.9733,-9.016 -7.608,-6.2 -7.608,-6.2 -7.608,-6.2 0,0 8.9947,0.8653 12.1173,-3.7027 3.1214,-4.568 -3.1013,-7.6067 -3.1013,-7.6067 0,0 13.2267,1.1747 8.4453,-3.7613 -4.7813,-4.936 -4.7813,-4.936 -4.7813,-4.936 0,0 9.4933,-1.1987 1.648,-7.3627 -7.8467,-6.1626 -45.0427,-10.108 -58.8507,-7.2906 -13.8066,2.8186 -39.6106,9.8933 -25.5813,12.4146" />
      <path
         id="path228"
         style="fill:#21222d;fill-opacity:1;fill-rule:nonzero;stroke:none;stroke-width:0.133333"
         d="m 1500.2816,1041.649 c -6.088,0.085 -18.908,1.42 -28.6347,7.1226 0,0 0.8733,-2.5986 5.5853,-7.056 4.7107,-4.4573 26.272,-7.4506 26.272,-7.4506 3.044,-0.492 3.3014,2.0506 2.9747,4.2933 -0.5907,1.2133 -2.1507,3.0347 -6.1973,3.0907" />
      <path
         id="path230"
         style="fill:#161515;fill-opacity:1;fill-rule:nonzero;stroke:none;stroke-width:0.133333"
         d="m 1506.7029,1049.0943 c -4.8467,-1.4893 -35.056,-0.3227 -35.056,-0.3227 9.7267,-5.7026 22.5467,-7.0373 28.6347,-7.1226 4.0466,-0.056 5.6066,-1.8774 6.1973,-3.0907 -0.2387,1.644 -0.792,3.128 -0.792,3.128 1.676,2.4413 1.016,7.408 1.016,7.408" />
      <path
         id="path232"
         style="fill:#21222d;fill-opacity:1;fill-rule:nonzero;stroke:none;stroke-width:0.133333"
         d="m 1500.9882,1042.5836 c 0,0 -7.888,0.3627 -11.8706,1.2427 -3.9827,0.88 -5.8254,1.588 0.1213,1.8707 5.9453,0.284 15.7133,-0.2827 11.7493,-3.1134" />
      <path
         id="path234"
         style="fill:#32334e;fill-opacity:1;fill-rule:nonzero;stroke:none;stroke-width:0.133333"
         d="m 1501.9082,1035.8823 c 0,0 2.328,0.5667 0.7987,1.7933 -1.5293,1.2267 -10.684,1.6987 -16.0627,2.832 -5.3786,1.132 -6.7946,0.9427 -4.7186,0 2.076,-0.944 11.088,-4.436 19.9826,-4.6253" />
      <path
         id="path236"
         style="fill:#f4f4f4;fill-opacity:1;fill-rule:nonzero;stroke:none;stroke-width:0.133333"
         d="m 1514.3629,1034.577 c 0,3.0493 2.472,5.5213 5.5213,5.5213 3.0494,0 5.5214,-2.472 5.5214,-5.5213 0,-3.048 -2.472,-5.52 -5.5214,-5.52 -3.0493,0 -5.5213,2.472 -5.5213,5.52" />
      <path
         id="path238"
         style="fill:#100f0d;fill-opacity:1;fill-rule:nonzero;stroke:none;stroke-width:0.133333"
         d="m 1514.3629,1034.6623 c 0,2.5333 2.0547,4.588 4.588,4.588 2.5333,0 4.588,-2.0547 4.588,-4.588 0,-2.5333 -2.0547,-4.5867 -4.588,-4.5867 -2.5333,0 -4.588,2.0534 -4.588,4.5867" />
      <path
         id="path240"
         style="fill:#ffffff;fill-opacity:1;fill-rule:nonzero;stroke:none;stroke-width:0.133333"
         d="m 1522.2962,1030.5516 c 0,-0.5293 -0.4293,-0.96 -0.9586,-0.96 -0.5307,0 -0.96,0.4307 -0.96,0.96 0,0.5294 0.4293,0.9587 0.96,0.9587 0.5293,0 0.9586,-0.4293 0.9586,-0.9587" />
    </g>
    <g
       id="g696"
       transform="matrix(-0.381,0,0,0.381,1418.8379,-164.59362)">
      <path
         id="path242"
         style="fill:#161515;fill-opacity:1;fill-rule:nonzero;stroke:none;stroke-width:0.133333"
         d="m 1332.1059,625.5233 c -21.3333,0.47333 -48.8933,-0.52133 -52.8933,0.0333 -4,0.55467 -34.668,33.15333 -67.1174,33.15333 -32.4466,0 -29.3346,-10.536 -48.8933,-10.536 -17.232,0 -40.6693,-5.608 -39.9133,-21.16399 1.4453,0.928 2.2466,1.408 2.2466,1.408 0,0 14.556,6.84266 22.556,6.092 7.9987,-0.75334 18.78,-12.00667 22.28,-14.42134 3.4987,-2.40933 16.144,-2.244 12.8334,-7.82533 -3.3094,-5.58267 71.288,-2.644 80.3133,0 9.0267,2.64267 3.5867,10.24 18.7533,7.82533 14.3987,-2.288 57.5934,-3.90266 72.5787,-4.06266 0.252,4.01866 -7.272,9.15333 -22.744,9.49733" />
      <path
         id="path244"
         style="fill:#161515;fill-opacity:1;fill-rule:nonzero;stroke:none;stroke-width:0.133333"
         d="m 1232.0979,652.05663 c 0,0 2.2227,6.65333 12.0013,6.65333 9.7787,0 12.4174,-10.588 10.6387,-13.54533 -1.7773,-2.95733 -5.0373,-2.21867 -5.0373,-2.21867 0,0 3.704,2.40267 1.9253,4.80667 0,0 -2.5187,-0.4 -3.2587,3.03467 -0.7413,3.43466 -4.0013,1.58533 -4.0013,1.58533 0,0 -0.9773,-7.39333 -5.304,-7.39333 -4.3267,0 -10.756,2.60266 -6.964,7.07733" />
      <path
         id="path246"
         style="fill:#21222d;fill-opacity:1;fill-rule:nonzero;stroke:none;stroke-width:0.133333"
         d="m 1183.2046,612.2633 c 3.3106,5.58133 -9.3347,5.416 -12.8334,7.82533 -3.5,2.41467 -14.2813,13.668 -22.28,14.42134 -8,0.75066 -22.556,-6.092 -22.556,-6.092 0,0 -0.3626,-0.21867 -1.0373,-0.64 3.956,-4.87867 13.6787,-14.59067 28.9253,-15.51467 8.7867,-0.532 19.6267,-0.684 29.7667,-0.65467 -0.124,0.204 -0.124,0.42134 0.015,0.65467" />
      <path
         id="path248"
         style="fill:#21222d;fill-opacity:1;fill-rule:nonzero;stroke:none;stroke-width:0.133333"
         d="m 1354.8499,616.02597 c -14.9853,0.16 -58.18,1.77466 -72.5787,4.06266 -15.0626,2.4 -9.7973,-5.07866 -18.572,-7.77066 4.3147,-0.0293 7.0707,-0.0547 7.0707,-0.0547 0,0 11.8267,5.04533 80.72,0.10667 2.1453,0.88 3.268,2.192 3.36,3.656" />
      <path
         id="path250"
         style="fill:#32334e;fill-opacity:1;fill-rule:nonzero;stroke:none;stroke-width:0.133333"
         d="m 1351.4899,612.36997 c -68.8933,4.93866 -80.72,-0.10667 -80.72,-0.10667 0,0 -2.756,0.0253 -7.0707,0.0547 -0.059,-0.0173 -0.1186,-0.036 -0.1813,-0.0547 -8.6493,-2.532 -77.5093,-5.33867 -80.328,-0.65467 -10.14,-0.0293 -20.98,0.12267 -29.7667,0.65467 -15.2466,0.924 -24.9693,10.636 -28.9253,15.51467 -0.3293,-0.21067 -0.736,-0.46534 -1.2093,-0.768 0.097,-2.096 0.64,-4.37334 1.6946,-6.84267 0,0 7.5507,-15.24267 31.1067,-15.24267 23.5587,0 12.0013,6.65467 37.7827,-2.772 25.7786,-9.42666 69.7853,6.36934 82.228,9.00934 12.4466,2.63466 66.6733,-2.096 75.1186,1.10133 0.092,0.0333 0.184,0.0693 0.2707,0.10667" />
      <path
         id="path252"
         style="fill:#161515;fill-opacity:1;fill-rule:nonzero;stroke:none;stroke-width:0.133333"
         d="m 1263.5179,612.2633 c 0.063,0.0187 0.1227,0.0373 0.1813,0.0547 -13.94,0.1 -44.16,0.27066 -50.2706,-0.0547 -4.5614,-0.244 -16.7814,-0.61067 -30.2387,-0.65467 2.8187,-4.684 71.6787,-1.87733 80.328,0.65467" />
      <path
         id="path254"
         style="fill:#161515;fill-opacity:1;fill-rule:nonzero;stroke:none;stroke-width:0.133333"
         d="m 1275.0206,699.54596 c 0,0 1.776,-4.57866 -3.1107,-10.876 0,0 7.1093,-4.27066 -2.2227,-11.57733 0,0 1.3334,-4.448 -2.6666,-8.45467 0,0 8.4426,-2.288 2.2226,-9.72933 0,0 7.9974,-4.58133 4.8894,-11.448 0,0 5.9266,-4.172 1.3306,-14.108 0,0 1.5707,-5.85333 -2.324,-11.42133 5.4947,13.08933 -7.228,15.84533 -7.228,15.84533 5.56,8.44533 -6.8506,15.55867 -6.8506,15.55867 5.3786,7.556 0,19.11066 0,19.11066 8.9346,7.112 0,11.55734 0,11.55734 11.6013,15.55733 -1.3747,9.33466 -1.3747,9.33466 0,0 0,0 4,7.89734 4,7.89733 6.2227,19.66133 1.7787,12.99333 -4.4454,-6.66667 -11.1134,-16.44667 -11.1134,-16.44667 0,0 0,0 3.556,11.55734 3.556,11.55733 4.8894,21.77866 0,15.11066 -4.8386,-6.596 -12.8666,-20.592 -13.0333,-20.88266 0.1573,0.648 13.8667,56.772 4.0333,36.88533 -9.888,-20 -23.4493,-46.67067 -22.116,-41.39067 1.3347,5.27867 17.336,71.172 9.964,49.836 -7.376,-21.336 -26.4066,-65.784 -20.628,-41.78133 0.9627,3.99867 1.7894,7.88533 2.4467,11.424 1.9213,8.06933 3.7813,15.852 5.2253,21.81333 5.052,20.87734 -2.668,10.668 -14.5213,-16.00133 -8.508,-19.14667 -13.8093,-40.276 -16.1267,-50.67467 -1.8133,2.232 -0.9986,13.004 -0.065,22.71467 0.5373,5.56267 1.1147,10.77467 1.26,13.836 0.3827,8.02533 -4.492,-0.88933 -11,-24.33867 -1.0613,-3.828 -2.1693,-8.04266 -3.3013,-12.632 v -0.004 c -0.9774,-4.7 -1.8014,-9.556 -2.4334,-13.65733 -6.404,13.39467 10.372,55.07067 16.2907,70.85733 6.2227,16.59734 4.444,-20.60533 4.444,-20.60533 0,0 14.6693,35.48667 24.4453,57.23867 9.7787,21.74799 12.8907,9.15599 11.5574,0 -1.3214,-9.08934 -9.6494,-34.51467 -9.776,-34.90934 0.1773,0.38 11.6106,24.816 18.6666,46.94667 7.112,22.30533 16.0014,19.44266 0,-38.93867 0,0 7.112,8.012 17.3347,34.34267 10.224,26.32666 8.4467,-6.86933 -3.556,-40.068 0,0 8.8907,9.73067 20.4453,26.90133 11.5534,17.16667 -6.2093,-31.448 -12.88,-40.056 0.324,0.31334 10.7987,10.43334 19.5467,19.45067 8.8907,9.15733 1.7787,-18.88533 -11.5507,-29.188 0.264,0.076 12.796,3.83733 4.4414,-12.02267" />
      <path
         id="path256"
         style="fill:#161515;fill-opacity:1;fill-rule:nonzero;stroke:none;stroke-width:0.133333"
         d="m 1273.1392,621.9313 c -1.176,-1.68533 -2.856,-3.34267 -5.2306,-4.80667 -10.2227,-6.29733 -42.228,-11.616 -59.56,-10.95866 -17.336,0.656 -25.2427,2.44533 -24.8934,10.95866 0,0 2.668,29.76133 -6.6666,40.63733 -0.4574,0.53067 -0.848,1.14667 -1.1774,1.83467 0.632,4.10133 1.456,8.95733 2.4334,13.65733 v 0.004 c 1.132,4.58934 2.24,8.804 3.3013,12.632 6.508,23.44934 11.3827,32.364 11,24.33867 -0.1453,-3.06133 -0.7227,-8.27333 -1.26,-13.836 -0.9333,-9.71067 -1.748,-20.48267 0.065,-22.71467 2.3174,10.39867 7.6187,31.528 16.1267,50.67467 11.8533,26.66933 19.5733,36.87867 14.5213,16.00133 -1.444,-5.96133 -3.304,-13.744 -5.2253,-21.81333 -0.6573,-3.53867 -1.484,-7.42533 -2.4467,-11.424 -5.7786,-24.00267 13.252,20.44533 20.628,41.78133 7.372,21.336 -8.6293,-44.55733 -9.964,-49.836 -1.3333,-5.28 12.228,21.39067 22.116,41.39067 9.8334,19.88667 -3.876,-36.23733 -4.0333,-36.88533 0.1667,0.29066 8.1947,14.28666 13.0333,20.88266 4.8894,6.668 3.556,-3.55333 0,-15.11066 -3.556,-11.55734 -3.556,-11.55734 -3.556,-11.55734 0,0 6.668,9.78 11.1134,16.44667 4.444,6.668 2.2213,-5.096 -1.7787,-12.99333 -4,-7.89734 -4,-7.89734 -4,-7.89734 0,0 12.976,6.22267 1.3747,-9.33466 0,0 8.9346,-4.44534 0,-11.55734 0,0 5.3786,-11.55466 0,-19.11066 0,0 12.4106,-7.11334 6.8506,-15.55867 0,0 12.7227,-2.756 7.228,-15.84533" />
      <path
         id="path258"
         style="fill:#21222d;fill-opacity:1;fill-rule:nonzero;stroke:none;stroke-width:0.133333"
         d="m 1179.7579,617.2353 c 0,0 12.0907,2.07333 11.2453,12.992 -0.8453,10.91733 -11.5013,24.444 -11.2453,30.784 0.2547,6.34 10.1267,58.28 12.588,49.21733 2.4613,-9.06267 2.4613,-33.156 2.4613,-33.156 0,0 12.8,36.77067 19.4427,54.94933 6.6427,18.17734 9.3693,12.57067 1.5147,-17.596 -7.8547,-30.168 -7.8547,-30.168 -7.8547,-30.168 0,0 17.5893,27.50534 22.2173,46.07334 4.628,18.56666 14.3387,27.05066 7.2614,4.64933 -7.076,-22.40267 -12.5974,-35.91867 -12.5974,-35.91867 0,0 17.74,32.98134 23.2547,43.53734 5.5133,10.556 2.872,-8.82534 0,-19.032 -2.8733,-10.20534 -8.9827,-26.628 -8.9827,-26.628 0,0 10.7387,18.67066 16.844,27.51066 6.1054,8.84 3.5787,-0.61333 -0.6533,-17.232 -4.2307,-16.61866 -4.2307,-16.61866 -4.2307,-16.61866 0,0 9.3667,19.08533 14.616,22.012 5.2507,2.92533 -5.3173,-20.744 -5.3173,-20.744 0,0 10.6333,-2.2 2.3587,-15.048 0,0 6.932,-6.57467 -1.5174,-11.61334 0,0 6.1427,-2.27466 -0.308,-8.096 0,0 13.416,-8.3 -0.5333,-14.24533 0,0 11.8267,-5.38133 3.3773,-12.63733 0,0 7.464,-2.57067 9.44,-8.296 1.9774,-5.724 10.8534,-7.28667 -20.0026,-12.84533 -30.856,-5.56 -46.9174,-6.732 -71.856,2.52 -24.9374,9.25066 -1.5227,5.62933 -1.5227,5.62933" />
      <path
         id="path260"
         style="fill:#21222d;fill-opacity:1;fill-rule:nonzero;stroke:none;stroke-width:0.133333"
         d="m 1121.7606,629.29263 c -6.088,0.0853 -18.908,1.42 -28.6347,7.12267 0,0 0.8733,-2.59867 5.5853,-7.056 4.7107,-4.45733 26.272,-7.45067 26.272,-7.45067 3.044,-0.492 3.3014,2.05067 2.9747,4.29334 -0.5907,1.21333 -2.1507,3.03466 -6.1973,3.09066" />
      <path
         id="path262"
         style="fill:#161515;fill-opacity:1;fill-rule:nonzero;stroke:none;stroke-width:0.133333"
         d="m 1128.1819,636.73796 c -4.8467,-1.48933 -35.056,-0.32266 -35.056,-0.32266 9.7267,-5.70267 22.5467,-7.03733 28.6347,-7.12267 4.0466,-0.056 5.6066,-1.87733 6.1973,-3.09066 -0.2387,1.644 -0.792,3.128 -0.792,3.128 1.676,2.44133 1.016,7.40799 1.016,7.40799" />
      <path
         id="path264"
         style="fill:#21222d;fill-opacity:1;fill-rule:nonzero;stroke:none;stroke-width:0.133333"
         d="m 1122.4672,630.2273 c 0,0 -7.888,0.36267 -11.8706,1.24267 -3.9827,0.88 -5.8254,1.588 0.1213,1.87066 5.9453,0.284 15.7133,-0.28266 11.7493,-3.11333" />
      <path
         id="path266"
         style="fill:#32334e;fill-opacity:1;fill-rule:nonzero;stroke:none;stroke-width:0.133333"
         d="m 1123.3872,623.52597 c 0,0 2.328,0.56666 0.7987,1.79333 -1.5293,1.22667 -10.684,1.69867 -16.0627,2.832 -5.3786,1.132 -6.7946,0.94267 -4.7186,0 2.076,-0.944 11.088,-4.436 19.9826,-4.62533" />
      <path
         id="path268"
         style="fill:#f4f4f4;fill-opacity:1;fill-rule:nonzero;stroke:none;stroke-width:0.133333"
         d="m 1135.8419,622.22063 c 0,3.04934 2.472,5.52134 5.5213,5.52134 3.0494,0 5.52,-2.472 5.52,-5.52134 0,-3.048 -2.4706,-5.52 -5.52,-5.52 -3.0493,0 -5.5213,2.472 -5.5213,5.52" />
      <path
         id="path270"
         style="fill:#100f0d;fill-opacity:1;fill-rule:nonzero;stroke:none;stroke-width:0.133333"
         d="m 1135.8419,622.30597 c 0,2.53333 2.0547,4.588 4.588,4.588 2.5333,0 4.588,-2.05467 4.588,-4.588 0,-2.53334 -2.0547,-4.58667 -4.588,-4.58667 -2.5333,0 -4.588,2.05333 -4.588,4.58667" />
      <path
         id="path272"
         style="fill:#ffffff;fill-opacity:1;fill-rule:nonzero;stroke:none;stroke-width:0.133333"
         d="m 1143.7752,618.1953 c 0,-0.52933 -0.4293,-0.96 -0.9586,-0.96 -0.5307,0 -0.96,0.43067 -0.96,0.96 0,0.52933 0.4293,0.95867 0.96,0.95867 0.5293,0 0.9586,-0.42934 0.9586,-0.95867" />
    </g>
    <g
       id="g678"
       transform="matrix(-0.381,0,0,0.381,1344.3045,-164.59361)">
      <path
         id="path274"
         style="fill:#161515;fill-opacity:1;fill-rule:nonzero;stroke:none;stroke-width:0.133333"
         d="m 1692.0379,625.5233 c -21.3333,0.47333 -48.8933,-0.52133 -52.8933,0.0333 -4,0.55467 -34.6667,33.15333 -67.12,33.15333 -32.44,0 -29.3334,-10.536 -48.8934,-10.536 -17.2266,0 -40.6666,-5.608 -39.9066,-21.16399 1.44,0.928 2.24,1.408 2.24,1.408 0,0 14.56,6.84266 22.56,6.092 8,-0.75334 18.7866,-12.00667 22.28,-14.42134 3.5066,-2.40933 16.1466,-2.244 12.84,-7.82533 -3.32,-5.58267 71.28,-2.644 80.3066,0 9.0267,2.64267 3.5867,10.24 18.76,7.82533 14.3867,-2.288 57.5867,-3.90266 72.5734,-4.06266 0.2533,4.01866 -7.2667,9.15333 -22.7467,9.49733" />
      <path
         id="path276"
         style="fill:#161515;fill-opacity:1;fill-rule:nonzero;stroke:none;stroke-width:0.133333"
         d="m 1592.0379,652.05663 c 0,0 2.2133,6.65333 12,6.65333 9.7733,0 12.4133,-10.588 10.64,-13.54533 -1.7867,-2.95733 -5.04,-2.21867 -5.04,-2.21867 0,0 3.7067,2.40267 1.92,4.80667 0,0 -2.52,-0.4 -3.2533,3.03467 -0.7467,3.43466 -4,1.58533 -4,1.58533 0,0 -0.9867,-7.39333 -5.3067,-7.39333 -4.3333,0 -10.76,2.60266 -6.96,7.07733" />
      <path
         id="path278"
         style="fill:#21222d;fill-opacity:1;fill-rule:nonzero;stroke:none;stroke-width:0.133333"
         d="m 1543.1446,612.2633 c 3.3066,5.58133 -9.3334,5.416 -12.84,7.82533 -3.4934,2.41467 -14.28,13.668 -22.28,14.42134 -8,0.75066 -22.56,-6.092 -22.56,-6.092 0,0 -0.36,-0.21867 -1.0267,-0.64 3.9467,-4.87867 13.6667,-14.59067 28.92,-15.51467 8.7867,-0.532 19.6267,-0.684 29.7733,-0.65467 -0.1333,0.204 -0.1333,0.42134 0.013,0.65467" />
      <path
         id="path280"
         style="fill:#21222d;fill-opacity:1;fill-rule:nonzero;stroke:none;stroke-width:0.133333"
         d="m 1714.7846,616.02597 c -14.9867,0.16 -58.1867,1.77466 -72.5734,4.06266 -15.0666,2.4 -9.8,-5.07866 -18.5733,-7.77066 4.3067,-0.0293 7.0667,-0.0547 7.0667,-0.0547 0,0 11.8266,5.04533 80.72,0.10667 2.1466,0.88 3.2666,2.192 3.36,3.656" />
      <path
         id="path282"
         style="fill:#32334e;fill-opacity:1;fill-rule:nonzero;stroke:none;stroke-width:0.133333"
         d="m 1711.4246,612.36997 c -68.8934,4.93866 -80.72,-0.10667 -80.72,-0.10667 0,0 -2.76,0.0253 -7.0667,0.0547 -0.067,-0.0173 -0.12,-0.036 -0.1867,-0.0547 -8.6533,-2.532 -77.5066,-5.33867 -80.32,-0.65467 -10.1466,-0.0293 -20.9866,0.12267 -29.7733,0.65467 -15.2533,0.924 -24.9733,10.636 -28.92,15.51467 -0.3333,-0.21067 -0.7467,-0.46534 -1.2133,-0.768 0.093,-2.096 0.64,-4.37334 1.6933,-6.84267 0,0 7.5467,-15.24267 31.1067,-15.24267 23.56,0 12,6.65467 37.7866,-2.772 25.7734,-9.42666 69.7867,6.36934 82.2267,9.00934 12.44,2.63466 66.6667,-2.096 75.12,1.10133 0.093,0.0333 0.1733,0.0693 0.2667,0.10667" />
      <path
         id="path284"
         style="fill:#161515;fill-opacity:1;fill-rule:nonzero;stroke:none;stroke-width:0.133333"
         d="m 1623.4512,612.2633 c 0.067,0.0187 0.12,0.0373 0.1867,0.0547 -13.9467,0.1 -44.16,0.27066 -50.28,-0.0547 -4.56,-0.244 -16.7733,-0.61067 -30.2267,-0.65467 2.8134,-4.684 71.6667,-1.87733 80.32,0.65467" />
      <path
         id="path286"
         style="fill:#161515;fill-opacity:1;fill-rule:nonzero;stroke:none;stroke-width:0.133333"
         d="m 1623.0912,618.9913 c -1.2533,-1.74667 -2.1333,-3.836 -2.5866,-5.92 -0.44,-0.152 -0.8934,-0.29867 -1.3734,-0.436 -10.8133,-3.06 -43.0533,-2.09867 -60.1066,1.01467 -17.0534,3.11333 -24.68,5.624 -23.3734,11.812 0,0 -7.96,9.42266 -15.6533,18.45733 0.6667,4.808 3.6133,13.08666 14.0533,24.59733 17.5067,19.292 19.8134,19.81733 13.12,8.536 -6.6933,-11.28133 6.12,3.456 24.1867,20.90267 18.08,17.44533 22.5733,17.04533 6.28,-7.41334 -16.3067,-24.45866 -5.7333,-12.89333 7.3333,0.63067 13.08,13.52267 24.8667,23.436 11.8267,3.46 -13.0533,-19.97733 -11.12,-18.51733 6.32,-1.556 17.4267,16.956 8.32,-4.212 -0.9733,-15.09467 -9.2934,-10.88133 5.7066,3.22667 16.2133,10.404 10.3867,7.092 -8.0133,-13.72133 -8.4533,-14.22533 0.2,0.16267 3.5733,2.80267 10.64,5.976 7.3066,3.27333 10.4,4.85067 1.0266,-4.25867 -8.5066,-8.256 -9.3066,-9.02933 -9.3733,-9.10666 0.48,0.224 21.9467,9.99333 13,1.22133 -9.0533,-8.86667 -9.0533,-8.86667 -9.0533,-8.86667 0,0 10.84,-0.492 0,-7.62 -10.8267,-7.12933 -0.5867,0.0907 1.1333,-5.448 1.7067,-5.54 -3.4133,-9.444 -3.4133,-9.444 0,0 8.2533,-1.68133 7.5466,-4.44399 -0.7066,-2.76134 -3.1466,-5.60934 -3.1466,-5.60934 0,0 10.64,0.53734 4.8266,-7.56933" />
      <path
         id="path288"
         style="fill:#161515;fill-opacity:1;fill-rule:nonzero;stroke:none;stroke-width:0.133333"
         d="m 1634.7846,667.66196 c 0,0 1.56,-1.476 -3.9734,-5.348 0,0 6.5467,-4.21066 -3.5066,-8.14933 0,0 1.16,-1.31467 -3.2534,-3.644 0,0 8.0934,-2.95867 1.1067,-7.464 0,0 7.3867,-4.57333 3.5467,-9.13466 0,0 5.3866,-3.95867 -0.28,-10.54 0,0 0.8933,-4.52934 -3.5867,-8.01867 -1.0933,-0.852 -2.5067,-1.64533 -4.3333,-2.292 0.4533,2.084 1.3333,4.17333 2.5866,5.92 5.8134,8.10667 -4.8266,7.56933 -4.8266,7.56933 0,0 2.44,2.848 3.1466,5.60934 0.7067,2.76266 -7.5466,4.44399 -7.5466,4.44399 0,0 5.12,3.904 3.4133,9.444 -1.72,5.53867 -11.96,-1.68133 -1.1333,5.448 10.84,7.128 0,7.62 0,7.62 0,0 0,0 9.0533,8.86667 8.9467,8.772 -12.52,-0.99733 -13,-1.22133 0.067,0.0773 0.8667,0.85066 9.3733,9.10666 9.3734,9.10934 6.28,7.532 -1.0266,4.25867 -7.0667,-3.17333 -10.44,-5.81333 -10.64,-5.976 0.44,0.504 18.84,21.31733 8.4533,14.22533 -10.5067,-7.17733 -25.5067,-21.28533 -16.2133,-10.404 9.2933,10.88267 18.4,32.05067 0.9733,15.09467 -17.44,-16.96133 -19.3733,-18.42133 -6.32,1.556 13.04,19.976 1.2533,10.06267 -11.8267,-3.46 -13.0666,-13.524 -23.64,-25.08933 -7.3333,-0.63067 16.2933,24.45867 11.8,24.85867 -6.28,7.41334 -18.0667,-17.44667 -30.88,-32.184 -24.1867,-20.90267 6.6934,11.28133 4.3867,10.756 -13.12,-8.536 -10.44,-11.51067 -13.3866,-19.78933 -14.0533,-24.59733 -0.3467,0.40533 -0.6933,0.80933 -1.04,1.20933 -0.3867,0.46 -0.7067,0.97067 -0.9467,1.52267 -4.8266,10.792 27.0134,49.524 38.0934,56.28533 15.88,9.69867 -0.2667,-13.72 -0.7067,-14.38 0.6267,0.56267 20.8667,18.74267 32.7867,32.976 12.12,14.44933 13.7733,4.75067 11.4266,-1.75467 -2.32,-6.46133 -12.8266,-19.968 -13,-20.236 0.2267,0.252 13.68,12.556 23.1467,27.70267 9.5333,15.26667 18.6,15.68533 -3.7867,-24.67067 0,0 3.9734,0.18134 17.04,17.92667 13.0667,17.74 11.5334,-1.70667 -4.0666,-24.212 0,0 9.28,1.91467 22.64,12.744 13.3333,10.81467 -9.04,-18.18 -16.6267,-23.52133 0.6933,0.352 11.9733,6.07466 21.4933,11.27333 9.8134,5.35867 -0.3733,-14.108 -14.7066,-19.63467 0.2666,0.016 13.08,0.86534 3.04,-9.488" />
      <path
         id="path290"
         style="fill:#21222d;fill-opacity:1;fill-rule:nonzero;stroke:none;stroke-width:0.133333"
         d="m 1536.0646,618.1953 c 0,0 8.96,-1.14267 3.6,6.46533 -5.3467,7.608 -18.4267,17.87733 -15.7734,26.12667 2.6534,8.24933 17.1734,33.372 24.52,32.532 7.36,-0.84 -5.28,-18.36267 -5.28,-18.36267 0,0 26.64,26.82667 30.5734,26.20533 3.9333,-0.62 -10.08,-20.57066 -10.08,-20.57066 0,0 26.8266,27.89733 33.6933,28.46133 6.88,0.564 -9.7467,-22.26133 -9.7467,-22.26133 0,0 18.0934,14.09466 21.44,11.13333 3.36,-2.96133 -11.6933,-15.36 -11.6933,-15.36 0,0 11.4933,4.01333 17.8667,3.66267 6.3866,-0.34934 -6.2,-11.55334 -6.2,-11.55334 0,0 17.8933,8.05467 12.3333,-0.48133 -5.56,-8.536 -5.56,-8.536 -5.56,-8.536 0,0 5.6267,-2.81733 -1.9733,-9.016 -7.6134,-6.2 -7.6134,-6.2 -7.6134,-6.2 0,0 9,0.86533 12.12,-3.70267 3.12,-4.56799 -3.1066,-7.60666 -3.1066,-7.60666 0,0 13.2266,1.17467 8.4533,-3.76133 -4.7867,-4.936 -4.7867,-4.936 -4.7867,-4.936 0,0 9.4934,-1.19867 1.6534,-7.36267 -7.8534,-6.16267 -45.0534,-10.108 -58.8534,-7.29067 -13.8133,2.81867 -39.6133,9.89334 -25.5866,12.41467" />
      <path
         id="path292"
         style="fill:#21222d;fill-opacity:1;fill-rule:nonzero;stroke:none;stroke-width:0.133333"
         d="m 1481.6912,629.29263 c -6.08,0.0853 -18.9066,1.42 -28.6266,7.12267 0,0 0.8666,-2.59867 5.5866,-7.056 4.7067,-4.45733 26.2667,-7.45067 26.2667,-7.45067 3.04,-0.492 3.3067,2.05067 2.9733,4.29334 -0.5866,1.21333 -2.1466,3.03466 -6.2,3.09066" />
      <path
         id="path294"
         style="fill:#161515;fill-opacity:1;fill-rule:nonzero;stroke:none;stroke-width:0.133333"
         d="m 1488.1179,636.73796 c -4.8533,-1.48933 -35.0533,-0.32266 -35.0533,-0.32266 9.72,-5.70267 22.5466,-7.03733 28.6266,-7.12267 4.0534,-0.056 5.6134,-1.87733 6.2,-3.09066 -0.24,1.644 -0.7866,3.128 -0.7866,3.128 1.6666,2.44133 1.0133,7.40799 1.0133,7.40799" />
      <path
         id="path296"
         style="fill:#21222d;fill-opacity:1;fill-rule:nonzero;stroke:none;stroke-width:0.133333"
         d="m 1482.3979,630.2273 c 0,0 -7.88,0.36267 -11.8667,1.24267 -3.9866,0.88 -5.8266,1.588 0.12,1.87066 5.9467,0.284 15.72,-0.28266 11.7467,-3.11333" />
      <path
         id="path298"
         style="fill:#32334e;fill-opacity:1;fill-rule:nonzero;stroke:none;stroke-width:0.133333"
         d="m 1483.3179,623.52597 c 0,0 2.3333,0.56666 0.8,1.79333 -1.5333,1.22667 -10.68,1.69867 -16.0667,2.832 -5.3733,1.132 -6.7866,0.94267 -4.7066,0 2.0666,-0.944 11.08,-4.436 19.9733,-4.62533" />
      <path
         id="path300"
         style="fill:#f4f4f4;fill-opacity:1;fill-rule:nonzero;stroke:none;stroke-width:0.133333"
         d="m 1495.7712,622.22063 c 0,3.04934 2.48,5.52134 5.52,5.52134 3.0534,0 5.5334,-2.472 5.5334,-5.52134 0,-3.048 -2.48,-5.52 -5.5334,-5.52 -3.04,0 -5.52,2.472 -5.52,5.52" />
      <path
         id="path302"
         style="fill:#100f0d;fill-opacity:1;fill-rule:nonzero;stroke:none;stroke-width:0.133333"
         d="m 1495.7712,622.30597 c 0,2.53333 2.0534,4.588 4.6,4.588 2.5334,0 4.5867,-2.05467 4.5867,-4.588 0,-2.53334 -2.0533,-4.58667 -4.5867,-4.58667 -2.5466,0 -4.6,2.05333 -4.6,4.58667" />
      <path
         id="path304"
         style="fill:#ffffff;fill-opacity:1;fill-rule:nonzero;stroke:none;stroke-width:0.133333"
         d="m 1503.7046,618.1953 c 0,-0.52933 -0.4267,-0.96 -0.96,-0.96 -0.52,0 -0.9467,0.43067 -0.9467,0.96 0,0.52933 0.4267,0.95867 0.9467,0.95867 0.5333,0 0.96,-0.42934 0.96,-0.95867" />
    </g>
    <g
       id="g747"
       transform="matrix(-0.381,0,0,0.381,610.4134,-376.91686)">
      <path
         id="path306"
         style="fill:#161515;fill-opacity:1;fill-rule:nonzero;stroke:none;stroke-width:0.133333"
         d="m 321.37391,1182.8022 c -21.33333,0.4733 -48.89333,-0.5214 -52.89333,0.033 -4,0.5533 -34.66933,33.152 -67.11733,33.152 -32.44667,0 -29.33467,-10.536 -48.89334,-10.536 -17.23199,0 -40.66933,-5.608 -39.91333,-21.164 1.44534,0.928 2.24534,1.4093 2.24534,1.4093 0,0 14.55733,6.8427 22.55733,6.092 7.99866,-0.7547 18.78,-12.008 22.27866,-14.4213 3.5,-2.4107 16.14534,-2.244 12.83467,-7.8267 -3.30933,-5.5813 71.288,-2.6427 80.31333,0 9.02667,2.644 3.58667,10.24 18.75334,7.8267 14.39866,-2.288 57.59333,-3.904 72.57866,-4.0627 0.252,4.0187 -7.272,9.1533 -22.744,9.4973" />
      <path
         id="path308"
         style="fill:#161515;fill-opacity:1;fill-rule:nonzero;stroke:none;stroke-width:0.133333"
         d="m 221.36591,1209.3342 c 0,0 2.22267,6.6533 12.00134,6.6533 9.77866,0 12.41733,-10.588 10.63866,-13.5453 -1.77866,-2.9574 -5.03733,-2.2174 -5.03733,-2.2174 0,0 3.704,2.4027 1.92533,4.8054 0,0 -2.51866,-0.4 -3.25866,3.0346 -0.74134,3.4347 -4.00134,1.5867 -4.00134,1.5867 0,0 -0.97733,-7.3933 -5.304,-7.3933 -4.32666,0 -10.756,2.6026 -6.964,7.076" />
      <path
         id="path310"
         style="fill:#21222d;fill-opacity:1;fill-rule:nonzero;stroke:none;stroke-width:0.133333"
         d="m 172.47258,1169.5408 c 3.31067,5.5827 -9.33467,5.416 -12.83467,7.8267 -3.49866,2.4133 -14.28,13.6667 -22.27866,14.4213 -8,0.7507 -22.55733,-6.092 -22.55733,-6.092 0,0 -0.36134,-0.2186 -1.036,-0.64 3.956,-4.88 13.67866,-14.5906 28.92533,-15.516 8.78666,-0.532 19.62666,-0.684 29.76666,-0.6533 -0.124,0.2027 -0.124,0.4213 0.0147,0.6533" />
      <path
         id="path312"
         style="fill:#21222d;fill-opacity:1;fill-rule:nonzero;stroke:none;stroke-width:0.133333"
         d="m 344.11791,1173.3048 c -14.98533,0.1587 -58.18,1.7747 -72.57866,4.0627 -15.064,2.3987 -9.79734,-5.08 -18.572,-7.7707 4.31466,-0.029 7.07066,-0.056 7.07066,-0.056 0,0 11.82667,5.0467 80.72,0.108 2.14533,0.88 3.268,2.192 3.36,3.656" />
      <path
         id="path314"
         style="fill:#32334e;fill-opacity:1;fill-rule:nonzero;stroke:none;stroke-width:0.133333"
         d="m 340.75791,1169.6488 c -68.89333,4.9387 -80.72,-0.108 -80.72,-0.108 0,0 -2.756,0.027 -7.07066,0.056 -0.0587,-0.019 -0.11867,-0.037 -0.18134,-0.056 -8.64933,-2.532 -77.50933,-5.3373 -80.328,-0.6533 -10.14,-0.031 -20.98,0.1213 -29.76666,0.6533 -15.24667,0.9254 -24.96933,10.636 -28.92533,15.516 -0.32934,-0.2106 -0.736,-0.4653 -1.20934,-0.7693 0.0973,-2.096 0.64,-4.3733 1.69467,-6.8427 0,0 7.55067,-15.2413 31.10666,-15.2413 23.55867,0 12.00134,6.6533 37.78267,-2.7733 25.77867,-9.4267 69.78533,6.3706 82.228,9.0093 12.44666,2.636 66.67333,-2.096 75.11866,1.1013 0.092,0.033 0.184,0.071 0.27067,0.108" />
      <path
         id="path316"
         style="fill:#161515;fill-opacity:1;fill-rule:nonzero;stroke:none;stroke-width:0.133333"
         d="m 252.78591,1169.5408 c 0.0627,0.019 0.12267,0.037 0.18134,0.056 -13.94,0.1 -44.16,0.2694 -50.27067,-0.056 -4.56133,-0.244 -16.78133,-0.6093 -30.23867,-0.6533 2.81867,-4.684 71.67867,-1.8787 80.328,0.6533" />
      <path
         id="path318"
         style="fill:#161515;fill-opacity:1;fill-rule:nonzero;stroke:none;stroke-width:0.133333"
         d="m 298.54191,1225.4968 c 0,0 1.15867,-3.428 -6.73333,-6.8546 -2.32934,-1.0147 -4.832,-2.0014 -7.19867,-2.8854 -0.004,0 -0.004,-0.01 -0.008,-0.01 -5.652,-2.1133 -10.54533,-3.656 -10.54533,-3.656 0,0 4.54266,-1.248 -2.52,-5.6107 -7.05867,-4.368 -15.67333,-8.792 -15.67333,-8.792 0,0 11.06266,-0.079 3.91866,-4.8386 0,0 11.82667,-1.24 -5.12266,-8.768 -16.95334,-7.528 -64.86934,-12.6853 -85.42,-3.184 0,0 -10.86267,4.288 -19.11734,11.8347 -2.66666,2.436 -5.06,5.2093 -6.72933,8.2906 -6.84666,12.6253 39.49067,28.0787 69.32,36.472 29.828,8.3933 13.944,-4.208 13.944,-4.208 0,0 22.32133,7.1733 39.22933,7.0933 16.90667,-0.079 5.65067,-5.6906 5.65067,-5.6906 0,0 23.936,2.96 35.20933,-0.78 11.26933,-3.7414 -8.204,-8.4174 -8.204,-8.4174" />
      <path
         id="path320"
         style="fill:#21222d;fill-opacity:1;fill-rule:nonzero;stroke:none;stroke-width:0.133333"
         d="m 165.40191,1175.0128 c 0,0 14.60267,0.1414 7.61867,5.168 -6.98533,5.028 -32.70666,11.6187 -20.55067,23.8947 12.156,12.2747 71.61334,30.304 64.85067,23.748 -6.76267,-6.556 -11.83467,-9.288 -11.83467,-9.288 0,0 24.51467,9.344 41.14,10.6827 16.62534,1.3373 9.58134,-5.7654 9.58134,-5.7654 0,0 10.42666,5.1907 27.33333,4.3707 16.90666,-0.8187 -12.11733,-6.2827 -12.11733,-6.2827 0,0 14.65333,1.6387 7.04533,-3.824 -7.608,-5.464 -22.82533,-8.4693 -22.82533,-8.4693 0,0 8.45333,-0.712 -1.12667,-7.048 -9.58133,-6.3373 -13.52533,-7.156 -13.52533,-7.156 0,0 17.188,-0.3933 10.42533,-4.1587 -6.76267,-3.764 -6.76267,-3.764 -6.76267,-3.764 0,0 17.44534,3.9267 12.104,-2.8173 -5.34133,-6.744 -9.004,-8.3613 -9.004,-8.3613 0,0 7.63067,2.4813 13.25467,0 5.62533,-2.48 -0.97067,-6.68 -0.97067,-6.68 0,0 -34.608,-10.472 -60.188,-8.64 -25.58,1.832 -25.924,7.8133 -34.096,8.824 -8.172,1.0106 -2.13333,5.4933 -0.352,5.5666" />
      <path
         id="path322"
         style="fill:#21222d;fill-opacity:1;fill-rule:nonzero;stroke:none;stroke-width:0.133333"
         d="m 111.02725,1186.5715 c -6.08667,0.084 -18.906666,1.42 -28.633326,7.1213 0,0 0.87333,-2.5973 5.58533,-7.0546 4.71067,-4.4587 26.271996,-7.4507 26.271996,-7.4507 3.044,-0.4933 3.30133,2.0507 2.97467,4.292 -0.59067,1.2147 -2.15067,3.036 -6.19867,3.092" />
      <path
         id="path324"
         style="fill:#161515;fill-opacity:1;fill-rule:nonzero;stroke:none;stroke-width:0.133333"
         d="m 117.44992,1194.0168 c -4.84667,-1.4893 -35.055996,-0.324 -35.055996,-0.324 9.72666,-5.7013 22.546656,-7.0373 28.633326,-7.1213 4.048,-0.056 5.608,-1.8773 6.19867,-3.092 -0.23867,1.6453 -0.792,3.128 -0.792,3.128 1.676,2.4413 1.016,7.4093 1.016,7.4093" />
      <path
         id="path326"
         style="fill:#21222d;fill-opacity:1;fill-rule:nonzero;stroke:none;stroke-width:0.133333"
         d="m 111.73525,1187.5048 c 0,0 -7.888,0.3627 -11.870666,1.2427 -3.98266,0.8813 -5.82533,1.5893 0.12134,1.872 5.945326,0.2827 15.713326,-0.2827 11.749326,-3.1147" />
      <path
         id="path328"
         style="fill:#32334e;fill-opacity:1;fill-rule:nonzero;stroke:none;stroke-width:0.133333"
         d="m 112.65525,1180.8048 c 0,0 2.328,0.5667 0.79867,1.7934 -1.52934,1.2266 -10.684,1.6986 -16.062666,2.8306 -5.37867,1.132 -6.79467,0.944 -4.71867,0 2.076,-0.944 11.087996,-4.436 19.982666,-4.624" />
      <path
         id="path330"
         style="fill:#f4f4f4;fill-opacity:1;fill-rule:nonzero;stroke:none;stroke-width:0.133333"
         d="m 125.10992,1179.4995 c 0,3.0493 2.472,5.5213 5.52133,5.5213 3.04933,0 5.52,-2.472 5.52,-5.5213 0,-3.0493 -2.47067,-5.5213 -5.52,-5.5213 -3.04933,0 -5.52133,2.472 -5.52133,5.5213" />
      <path
         id="path332"
         style="fill:#100f0d;fill-opacity:1;fill-rule:nonzero;stroke:none;stroke-width:0.133333"
         d="m 125.10992,1179.5848 c 0,2.5334 2.05466,4.588 4.588,4.588 2.53333,0 4.588,-2.0546 4.588,-4.588 0,-2.5333 -2.05467,-4.588 -4.588,-4.588 -2.53334,0 -4.588,2.0547 -4.588,4.588" />
      <path
         id="path334"
         style="fill:#ffffff;fill-opacity:1;fill-rule:nonzero;stroke:none;stroke-width:0.133333"
         d="m 133.04325,1175.4728 c 0,-0.5293 -0.42933,-0.9586 -0.95867,-0.9586 -0.53066,0 -0.96,0.4293 -0.96,0.9586 0,0.5307 0.42934,0.96 0.96,0.96 0.52934,0 0.95867,-0.4293 0.95867,-0.96" />
    </g>
    <g
       id="g730"
       transform="matrix(-0.381,0,0,0.381,526.4005,-373.86631)">
      <path
         id="path336"
         style="fill:#161515;fill-opacity:1;fill-rule:nonzero;stroke:none;stroke-width:0.133333"
         d="m 656.42324,1174.7955 c -21.33334,0.4733 -48.89334,-0.5213 -52.89334,0.033 -4.00133,0.5546 -34.66933,33.152 -67.11733,33.152 -32.44666,0 -29.33466,-10.5347 -48.89333,-10.5347 -17.232,0 -40.66933,-5.608 -39.91333,-21.1653 1.44533,0.928 2.24533,1.4093 2.24533,1.4093 0,0 14.55733,6.8427 22.55733,6.092 7.99867,-0.7547 18.78,-12.0067 22.27867,-14.4213 3.5,-2.4107 16.14533,-2.244 12.83467,-7.8254 -3.30934,-5.5826 71.28666,-2.644 80.31333,0 9.02666,2.6427 3.58666,10.24 18.75333,7.8254 14.39867,-2.288 57.592,-3.904 72.57866,-4.0627 0.252,4.0187 -7.27199,9.1533 -22.74399,9.4973" />
      <path
         id="path338"
         style="fill:#161515;fill-opacity:1;fill-rule:nonzero;stroke:none;stroke-width:0.133333"
         d="m 556.41524,1201.3275 c 0,0 2.22266,6.6547 12.00133,6.6547 9.77867,0 12.416,-10.588 10.63867,-13.5454 -1.77867,-2.9573 -5.03734,-2.2186 -5.03734,-2.2186 0,0 3.704,2.4026 1.92534,4.8053 0,0 -2.51867,-0.3987 -3.26,3.036 -0.74,3.4333 -4,1.5853 -4,1.5853 0,0 -0.97734,-7.3933 -5.304,-7.3933 -4.32667,0 -10.756,2.6027 -6.964,7.076" />
      <path
         id="path340"
         style="fill:#21222d;fill-opacity:1;fill-rule:nonzero;stroke:none;stroke-width:0.133333"
         d="m 507.52191,1161.5355 c 3.31066,5.5813 -9.33467,5.4147 -12.83467,7.8253 -3.49867,2.4147 -14.28,13.6667 -22.27867,14.4214 -8,0.7506 -22.55733,-6.092 -22.55733,-6.092 0,0 -0.36133,-0.2187 -1.036,-0.64 3.956,-4.88 13.67867,-14.5907 28.92533,-15.5147 8.78667,-0.5333 19.62667,-0.684 29.76667,-0.6547 -0.124,0.2027 -0.124,0.4214 0.0147,0.6547" />
      <path
         id="path342"
         style="fill:#21222d;fill-opacity:1;fill-rule:nonzero;stroke:none;stroke-width:0.133333"
         d="m 679.16723,1165.2982 c -14.98666,0.1586 -58.17999,1.7746 -72.57866,4.0626 -15.064,2.4 -9.79733,-5.0786 -18.572,-7.7706 4.31467,-0.029 7.07067,-0.055 7.07067,-0.055 0,0 11.82666,5.0453 80.71866,0.1066 2.14667,0.88 3.26933,2.192 3.36133,3.656" />
      <path
         id="path344"
         style="fill:#32334e;fill-opacity:1;fill-rule:nonzero;stroke:none;stroke-width:0.133333"
         d="m 675.8059,1161.6422 c -68.892,4.9386 -80.71866,-0.1067 -80.71866,-0.1067 0,0 -2.756,0.025 -7.07067,0.055 -0.06,-0.019 -0.11867,-0.037 -0.18133,-0.055 -8.64934,-2.5333 -77.50933,-5.3387 -80.328,-0.6547 -10.14,-0.029 -20.98,0.1214 -29.76667,0.6547 -15.24666,0.924 -24.96933,10.6347 -28.92533,15.5147 -0.32933,-0.2107 -0.736,-0.4654 -1.20933,-0.7694 0.0973,-2.096 0.64,-4.3733 1.69466,-6.8426 0,0 7.55067,-15.2414 31.10667,-15.2414 23.55867,0 12.00133,6.6547 37.78267,-2.772 25.77866,-9.428 69.78533,6.3694 82.22799,9.008 12.44667,2.636 66.67334,-2.096 75.11867,1.1027 0.092,0.033 0.184,0.069 0.26933,0.1067" />
      <path
         id="path346"
         style="fill:#ffffff;fill-opacity:1;fill-rule:nonzero;stroke:none;stroke-width:0.133333"
         d="m 587.83524,1161.5355 c 0.0627,0.017 0.12133,0.036 0.18133,0.055 -13.94,0.1 -44.16,0.2707 -50.27066,-0.055 -4.56134,-0.244 -16.78134,-0.6107 -30.23867,-0.6547 2.81867,-4.684 71.67866,-1.8786 80.328,0.6547" />
      <path
         id="path348"
         style="fill:#161515;fill-opacity:1;fill-rule:nonzero;stroke:none;stroke-width:0.133333"
         d="m 633.59124,1129.5182 c 0,0 1.15733,3.0986 -6.73334,6.196 -2.32933,0.9173 -4.832,1.8093 -7.19866,2.608 -0.004,0 -0.004,0 -0.008,0 -5.652,1.9106 -10.54534,3.3053 -10.54534,3.3053 0,0 4.54267,1.1293 -2.52,5.0733 -7.05866,3.9467 -15.67333,7.9454 -15.67333,7.9454 0,0 11.06133,0.072 3.91867,4.3746 0,0 11.82666,1.1214 -5.12267,7.9254 -16.95333,6.8053 -64.86933,11.468 -85.42,2.8786 0,0 -10.86266,-3.876 -19.11733,-10.6973 -2.66667,-2.2027 -5.06,-4.7093 -6.72933,-7.4947 -6.848,-11.412 39.49066,-25.3813 69.31999,-32.9693 29.828,-7.5867 13.944,3.804 13.944,3.804 0,0 22.32134,-6.484 39.22934,-6.412 16.90666,0.072 5.65066,5.144 5.65066,5.144 0,0 23.936,-2.6747 35.20934,0.7067 11.26933,3.3813 -8.204,7.608 -8.204,7.608" />
      <path
         id="path350"
         style="fill:#21222d;fill-opacity:1;fill-rule:nonzero;stroke:none;stroke-width:0.133333"
         d="m 633.59124,1129.5182 c 0,0 1.15733,3.0986 -6.73334,6.196 -2.32933,0.9173 -4.832,1.8093 -7.19866,2.608 13.628,-7.248 4.66266,-7.396 4.66266,-7.396 0,0 16.34534,-5.9187 -6.19733,-5.0734 -22.54533,0.8454 -33.252,8.7374 -25.62667,3.3827 7.62934,-5.356 1.67334,-6.764 -8.75333,-5.9187 -10.424,0.8454 -39.30933,8.7374 -39.30933,8.7374 0,0 8.31333,-7.0467 5.49466,-7.0467 -2.81466,0 -57.76399,15.2173 -64.25199,24.516 -2.37067,3.4027 -1.952,6.7453 -0.50667,9.608 -2.66667,-2.2027 -5.06,-4.7093 -6.72933,-7.4947 -6.848,-11.412 39.49066,-25.3813 69.31999,-32.9693 29.828,-7.5867 13.944,3.804 13.944,3.804 0,0 22.32134,-6.484 39.22934,-6.412 16.90666,0.072 5.65066,5.144 5.65066,5.144 0,0 23.936,-2.6747 35.20934,0.7067 11.26933,3.3813 -8.204,7.608 -8.204,7.608" />
      <path
         id="path352"
         style="fill:#21222d;fill-opacity:1;fill-rule:nonzero;stroke:none;stroke-width:0.133333"
         d="m 446.07657,1178.5648 c -6.08666,0.084 -18.90666,1.42 -28.63333,7.1227 0,0 0.87333,-2.5987 5.584,-7.056 4.712,-4.4573 26.27333,-7.4507 26.27333,-7.4507 3.044,-0.492 3.30134,2.0507 2.97467,4.292 -0.592,1.2147 -2.15067,3.036 -6.19867,3.092" />
      <path
         id="path354"
         style="fill:#161515;fill-opacity:1;fill-rule:nonzero;stroke:none;stroke-width:0.133333"
         d="m 452.49924,1186.0102 c -4.84667,-1.4894 -35.056,-0.3227 -35.056,-0.3227 9.72667,-5.7027 22.54667,-7.0387 28.63333,-7.1227 4.048,-0.056 5.60667,-1.8773 6.19867,-3.092 -0.23867,1.6454 -0.792,3.128 -0.792,3.128 1.676,2.4414 1.016,7.4094 1.016,7.4094" />
      <path
         id="path356"
         style="fill:#21222d;fill-opacity:1;fill-rule:nonzero;stroke:none;stroke-width:0.133333"
         d="m 446.78457,1179.4982 c 0,0 -7.88933,0.3626 -11.872,1.244 -3.98133,0.88 -5.824,1.588 0.12267,1.8706 5.94533,0.2827 15.71333,-0.2826 11.74933,-3.1146" />
      <path
         id="path358"
         style="fill:#32334e;fill-opacity:1;fill-rule:nonzero;stroke:none;stroke-width:0.133333"
         d="m 447.70457,1172.7982 c 0,0 2.328,0.5666 0.79867,1.7933 -1.52933,1.2267 -10.684,1.6987 -16.06267,2.8307 -5.37866,1.1333 -6.79466,0.944 -4.71866,0 2.076,-0.944 11.088,-4.4347 19.98266,-4.624" />
      <path
         id="path360"
         style="fill:#f4f4f4;fill-opacity:1;fill-rule:nonzero;stroke:none;stroke-width:0.133333"
         d="m 460.15924,1171.4928 c 0,3.0494 2.472,5.5214 5.52133,5.5214 3.04934,0 5.52,-2.472 5.52,-5.5214 0,-3.0493 -2.47066,-5.52 -5.52,-5.52 -3.04933,0 -5.52133,2.4707 -5.52133,5.52" />
      <path
         id="path362"
         style="fill:#100f0d;fill-opacity:1;fill-rule:nonzero;stroke:none;stroke-width:0.133333"
         d="m 460.15924,1171.5782 c 0,2.5333 2.05467,4.588 4.588,4.588 2.53333,0 4.58667,-2.0547 4.58667,-4.588 0,-2.5334 -2.05334,-4.5867 -4.58667,-4.5867 -2.53333,0 -4.588,2.0533 -4.588,4.5867" />
      <path
         id="path364"
         style="fill:#ffffff;fill-opacity:1;fill-rule:nonzero;stroke:none;stroke-width:0.133333"
         d="m 468.09257,1167.4675 c 0,-0.5293 -0.42933,-0.96 -0.95866,-0.96 -0.53067,0 -0.96,0.4307 -0.96,0.96 0,0.5293 0.42933,0.9587 0.96,0.9587 0.52933,0 0.95866,-0.4294 0.95866,-0.9587" />
    </g>
    <g
       id="g713"
       transform="matrix(-0.381,0,0,0.381,436.4297,-367.07962)">
      <path
         id="path366"
         style="fill:#161515;fill-opacity:1;fill-rule:nonzero;stroke:none;stroke-width:0.133333"
         d="m 975.83475,1156.9827 c -21.3334,0.4733 -48.892,-0.5214 -52.8934,0.033 -4,0.5546 -34.668,33.1533 -67.11729,33.1533 -32.44533,0 -29.33467,-10.536 -48.892,-10.536 -17.232,0 -40.67067,-5.608 -39.91467,-21.164 1.44667,0.928 2.24667,1.408 2.24667,1.408 0,0 14.556,6.8427 22.55733,6.092 7.99867,-0.7533 18.77867,-12.0067 22.27867,-14.42 3.5,-2.4107 16.144,-2.244 12.83467,-7.8267 -3.31067,-5.5826 71.28662,-2.6426 80.31332,0 9.0267,2.6427 3.5853,10.24 18.752,7.8267 14.3987,-2.2893 57.5933,-3.904 72.5787,-4.064 0.252,4.0187 -7.272,9.1533 -22.744,9.4973" />
      <path
         id="path368"
         style="fill:#161515;fill-opacity:1;fill-rule:nonzero;stroke:none;stroke-width:0.133333"
         d="m 875.82806,1183.516 c 0,0 2.22133,6.6533 11.99999,6.6533 9.7787,0 12.4173,-10.588 10.6387,-13.5453 -1.7774,-2.9573 -5.0374,-2.2187 -5.0374,-2.2187 0,0 3.704,2.404 1.9267,4.8067 0,0 -2.5187,-0.4 -3.26,3.0347 -0.7413,3.4346 -4,1.5866 -4,1.5866 0,0 -0.9787,-7.3946 -5.30532,-7.3946 -4.32667,0 -10.756,2.604 -6.96267,7.0773" />
      <path
         id="path370"
         style="fill:#21222d;fill-opacity:1;fill-rule:nonzero;stroke:none;stroke-width:0.133333"
         d="m 826.93473,1143.7227 c 3.30933,5.5826 -9.33467,5.416 -12.83467,7.8266 -3.5,2.4134 -14.28,13.6667 -22.27867,14.42 -8.00133,0.7507 -22.55733,-6.092 -22.55733,-6.092 0,0 -0.36133,-0.2173 -1.03733,-0.6386 3.956,-4.88 13.67866,-14.592 28.92533,-15.516 8.78667,-0.532 19.62667,-0.684 29.768,-0.6547 -0.12533,0.204 -0.12533,0.4213 0.0147,0.6547" />
      <path
         id="path372"
         style="fill:#21222d;fill-opacity:1;fill-rule:nonzero;stroke:none;stroke-width:0.133333"
         d="m 998.57875,1147.4853 c -14.9854,0.16 -58.18,1.7747 -72.5787,4.064 -15.0627,2.3987 -9.7973,-5.08 -18.572,-7.7706 4.3147,-0.031 7.0707,-0.056 7.0707,-0.056 0,0 11.828,5.0466 80.72,0.1066 2.1453,0.88 3.268,2.1934 3.36,3.656" />
      <path
         id="path374"
         style="fill:#32334e;fill-opacity:1;fill-rule:nonzero;stroke:none;stroke-width:0.133333"
         d="m 995.21875,1143.8293 c -68.892,4.94 -80.72,-0.1066 -80.72,-0.1066 0,0 -2.756,0.025 -7.0707,0.056 -0.059,-0.019 -0.1187,-0.037 -0.18,-0.056 -8.6507,-2.532 -77.51066,-5.3387 -80.32799,-0.6547 -10.14133,-0.029 -20.98133,0.1227 -29.768,0.6547 -15.24667,0.924 -24.96933,10.636 -28.92533,15.516 -0.32934,-0.212 -0.73467,-0.4667 -1.20934,-0.7694 0.0987,-2.096 0.64,-4.3733 1.696,-6.8426 0,0 7.55067,-15.2427 31.10667,-15.2427 23.55867,0 12.00133,6.6547 37.78267,-2.772 25.77866,-9.4267 69.78402,6.3693 82.22802,9.0093 12.4453,2.636 66.6733,-2.096 75.1186,1.1014 0.092,0.033 0.1827,0.071 0.2694,0.1066" />
      <path
         id="path376"
         style="fill:#ffffff;fill-opacity:1;fill-rule:nonzero;stroke:none;stroke-width:0.133333"
         d="m 907.24805,1143.7227 c 0.061,0.019 0.1213,0.037 0.18,0.056 -13.9387,0.099 -44.15999,0.2693 -50.27066,-0.056 -4.56,-0.244 -16.78133,-0.6107 -30.23733,-0.6547 2.81733,-4.684 71.67729,-1.8773 80.32799,0.6547" />
      <path
         id="path378"
         style="fill:#161515;fill-opacity:1;fill-rule:nonzero;stroke:none;stroke-width:0.133333"
         d="m 910.78005,1143.064 c -0.968,1.864 -1.5213,4.0027 -1.6613,6.0747 -0.4054,0.2106 -0.8334,0.4186 -1.2854,0.6213 -10.224,4.5387 -42.22929,8.3773 -59.56396,7.904 -17.33333,-0.4733 -25.24266,-1.7627 -24.892,-7.904 0,0 -9.30266,-7.8827 -18.284,-15.432 -0.068,-4.7213 1.588,-13.116 10.16,-25.7253 14.372,-21.1334 16.56934,-21.9787 11.66667,-10.144 -4.90267,11.8346 5.524,-4.2267 20.74133,-23.6694 15.216,-19.444 19.72134,-19.7226 7.324,6.2 -12.39733,25.9227 -3.71066,13.2427 7.16134,-1.6906 10.87466,-14.9334 21.01866,-26.2067 11.15466,-5.072 -9.86133,21.1333 -8.17066,19.4426 6.48267,0.5626 14.65069,-18.8773 8.86799,2.8187 1.336,14.6534 -7.536,11.836 5.14399,-3.9427 14.44269,-12.3974 9.1893,-8.352 -5.832,14.376 -6.192,14.9254 0.1773,-0.1854 3.1026,-3.2214 9.612,-7.316 6.7253,-4.2267 9.544,-6.2014 1.6533,3.9426 -7.152,9.1934 -7.824,10.056 -7.884,10.14 0.448,-0.2866 20.1747,-12.8493 12.664,-3.0933 -7.6,9.8613 -7.6,9.8613 -7.6,9.8613 0,0 10.7867,-1.1293 1.1667,7.3254 -9.62,8.4533 -0.6,0 1.936,5.072 2.536,5.072 -1.936,9.5813 -1.936,9.5813 0,0 8.42,0.3973 8.136,3.1573 -0.2827,2.76 -2.256,5.8587 -2.256,5.8587 0,0 10.4266,-2.088 5.9173,6.564" />
      <path
         id="path380"
         style="fill:#21222d;fill-opacity:1;fill-rule:nonzero;stroke:none;stroke-width:0.133333"
         d="m 914.94275,1094.5453 c 0,0 1.776,1.188 -3.1107,5.7267 0,0 7.1093,3.0813 -2.2227,8.352 0,0 1.3347,1.0947 -2.668,3.9867 0,0 8.4454,1.648 2.224,7.012 0,0 7.9974,3.3053 4.8907,8.2586 0,0 5.9253,3.0094 1.3307,10.1747 0,0 1.568,4.2227 -2.324,8.2373 -0.952,0.9814 -2.232,1.9534 -3.944,2.8454 0.14,-2.072 0.6933,-4.2107 1.6613,-6.0747 4.5093,-8.652 -5.9173,-6.564 -5.9173,-6.564 0,0 1.9733,-3.0987 2.256,-5.8587 0.284,-2.76 -8.136,-3.1573 -8.136,-3.1573 0,0 4.472,-4.5093 1.936,-9.5813 -2.536,-5.072 -11.556,3.3813 -1.936,-5.072 9.62,-8.4547 -1.1667,-7.3254 -1.1667,-7.3254 0,0 0,0 7.6,-9.8613 7.5107,-9.756 -12.216,2.8067 -12.664,3.0933 0.06,-0.084 0.732,-0.9466 7.884,-10.14 7.8907,-10.144 5.072,-8.1693 -1.6533,-3.9426 -6.5094,4.0946 -9.4347,7.1306 -9.612,7.316 0.36,-0.5494 15.3813,-23.2774 6.192,-14.9254 -9.2987,8.4547 -21.97869,24.2334 -14.44269,12.3974 7.53199,-11.8347 13.31469,-33.5307 -1.336,-14.6534 -14.65333,18.88 -16.344,20.5707 -6.48267,-0.5626 9.864,-21.1347 -0.28,-9.8614 -11.15466,5.072 -10.872,14.9333 -19.55867,27.6133 -7.16134,1.6906 12.39734,-25.9226 7.892,-25.644 -7.324,-6.2 -15.21733,19.4427 -25.644,35.504 -20.74133,23.6694 4.90267,-11.8347 2.70533,-10.9894 -11.66667,10.144 -8.572,12.6093 -10.228,21.004 -10.16,25.7253 -0.40266,-0.3387 -0.804,-0.6773 -1.20133,-1.0107 -0.456,-0.384 -0.84933,-0.828 -1.17867,-1.3226 -6.404,-9.6627 19.18934,-51.6054 29.10934,-59.7414 14.224,-11.6706 1.82666,13.2294 1.48,13.9307 0.536,-0.6333 17.78666,-21.104 27.41066,-36.5493 9.78,-15.6814 12.892,-6.6014 11.556,0 -1.31866,6.556 -9.64533,21.092 -9.776,21.376 0.18134,-0.276 11.61067,-14.0934 18.66934,-30.0534 7.10932,-16.0866 16.00262,-17.828 0,24.2787 0,0 3.89733,-0.76 14.11732,-19.752 10.224,-18.9867 11.6613,-0.063 -0.3387,23.8773 0,0 8.8894,-3.212 20.4454,-15.596 11.54,-12.368 -6.1707,18.8134 -12.8574,25.068 0.6254,-0.4386 10.9094,-7.608 19.5227,-14.012 8.8893,-6.6013 1.78,13.62 -11.5507,21.0507 0.2654,-0.056 12.7934,-2.7653 4.4414,8.6733" />
      <path
         id="path382"
         style="fill:#21222d;fill-opacity:1;fill-rule:nonzero;stroke:none;stroke-width:0.133333"
         d="m 765.48939,1160.752 c -6.08666,0.085 -18.90666,1.42 -28.63466,7.1227 0,0 0.87333,-2.5987 5.58533,-7.056 4.712,-4.4574 26.272,-7.4494 26.272,-7.4494 3.04533,-0.4933 3.30267,2.0507 2.976,4.292 -0.592,1.2134 -2.152,3.0347 -6.19867,3.0907" />
      <path
         id="path384"
         style="fill:#161515;fill-opacity:1;fill-rule:nonzero;stroke:none;stroke-width:0.133333"
         d="m 771.91073,1168.1973 c -4.84667,-1.4893 -35.056,-0.3226 -35.056,-0.3226 9.728,-5.7027 22.548,-7.0374 28.63466,-7.1227 4.04667,-0.056 5.60667,-1.8773 6.19867,-3.0907 -0.24,1.644 -0.79333,3.128 -0.79333,3.128 1.676,2.4414 1.016,7.408 1.016,7.408" />
      <path
         id="path386"
         style="fill:#21222d;fill-opacity:1;fill-rule:nonzero;stroke:none;stroke-width:0.133333"
         d="m 766.19739,1161.6867 c 0,0 -7.88933,0.3626 -11.872,1.2426 -3.98266,0.88 -5.82399,1.588 0.12134,1.8707 5.94666,0.284 15.71333,-0.2827 11.75066,-3.1133" />
      <path
         id="path388"
         style="fill:#32334e;fill-opacity:1;fill-rule:nonzero;stroke:none;stroke-width:0.133333"
         d="m 767.11739,1154.9867 c 0,0 2.328,0.5653 0.79734,1.792 -1.52934,1.2266 -10.68267,1.6986 -16.06267,2.832 -5.37866,1.132 -6.79333,0.944 -4.71866,0 2.07733,-0.944 11.08933,-4.436 19.98399,-4.624" />
      <path
         id="path390"
         style="fill:#f4f4f4;fill-opacity:1;fill-rule:nonzero;stroke:none;stroke-width:0.133333"
         d="m 779.57206,1153.6813 c 0,3.048 2.472,5.52 5.52,5.52 3.04933,0 5.52133,-2.472 5.52133,-5.52 0,-3.0493 -2.472,-5.5213 -5.52133,-5.5213 -3.048,0 -5.52,2.472 -5.52,5.5213" />
      <path
         id="path392"
         style="fill:#100f0d;fill-opacity:1;fill-rule:nonzero;stroke:none;stroke-width:0.133333"
         d="m 780.99873,1153.7653 c 0,2.5347 2.05466,4.588 4.588,4.588 2.53333,0 4.58666,-2.0533 4.58666,-4.588 0,-2.532 -2.05333,-4.5866 -4.58666,-4.5866 -2.53334,0 -4.588,2.0546 -4.588,4.5866" />
      <path
         id="path394"
         style="fill:#ffffff;fill-opacity:1;fill-rule:nonzero;stroke:none;stroke-width:0.133333"
         d="m 787.50406,1149.6547 c 0,-0.5294 -0.42933,-0.9587 -0.95867,-0.9587 -0.52933,0 -0.95866,0.4293 -0.95866,0.9587 0,0.5293 0.42933,0.9586 0.95866,0.9586 0.52934,0 0.95867,-0.4293 0.95867,-0.9586" />
    </g>
  </g>
</svg>
