<svg xmlns="http://www.w3.org/2000/svg" width="114.56" height="122.83" viewBox="0 0 30.31 32.5"><path d="M360.05 687.87v18.9l32.73 18.9v-18.9zm-65.46 18.9v18.9l16.36 9.45v-18.9Zm49.1 9.45-16.37 9.45v56.7l16.36 9.44v-37.8l16.37 9.46v-18.9l-16.37-9.45z" style="fill:#e55b2d;fill-opacity:1" transform="translate(-77.94 -177)scale(.26458)"/><path d="m360.05 687.87-49.1 28.35v18.9l32.73-18.9v18.9l16.37-9.45zm49.1 9.45-16.37 9.45v18.9l16.37-9.45zm-32.74 37.8-16.36 9.45v18.9l16.36-9.45zm-16.36 28.35-16.37-9.45v37.8l16.37-9.46z" style="fill:#ed8e24;fill-opacity:1" transform="translate(-77.94 -177)scale(.26458)"/><path d="m360.05 668.98-65.46 37.8 16.36 9.44 49.1-28.35 32.73 18.9 16.37-9.45zm0 56.69-16.37 9.45 16.37 9.45 16.36-9.45z" style="fill:#f8bf3c;fill-opacity:1" transform="translate(-77.94 -177)scale(.26458)"/></svg>