<?xml version="1.0" encoding="UTF-8" standalone="no"?>
<svg
   xmlns:dc="http://purl.org/dc/elements/1.1/"
   xmlns:cc="http://creativecommons.org/ns#"
   xmlns:rdf="http://www.w3.org/1999/02/22-rdf-syntax-ns#"
   xmlns:svg="http://www.w3.org/2000/svg"
   xmlns="http://www.w3.org/2000/svg"
   xmlns:sodipodi="http://sodipodi.sourceforge.net/DTD/sodipodi-0.dtd"
   xmlns:inkscape="http://www.inkscape.org/namespaces/inkscape"
   class="MuiSvgIcon-root makeStyles-icon-32"
   focusable="false"
   viewBox="0 0 24 24"
   aria-hidden="true"
   version="1.1"
   id="svg4"
   sodipodi:docname="winterIcon.svg"
   width="24"
   height="24"
   inkscape:version="1.0.2-2 (e86c870879, 2021-01-15)">
  <metadata
     id="metadata10">
    <rdf:RDF>
      <cc:Work
         rdf:about="">
        <dc:format>image/svg+xml</dc:format>
        <dc:type
           rdf:resource="http://purl.org/dc/dcmitype/StillImage" />
        <dc:title />
      </cc:Work>
    </rdf:RDF>
  </metadata>
  <defs
     id="defs8" />
  <sodipodi:namedview
     pagecolor="#ffffff"
     bordercolor="#666666"
     borderopacity="1"
     objecttolerance="10"
     gridtolerance="10"
     guidetolerance="10"
     inkscape:pageopacity="0"
     inkscape:pageshadow="2"
     inkscape:window-width="1920"
     inkscape:window-height="1018"
     id="namedview6"
     showgrid="false"
     inkscape:zoom="19.180271"
     inkscape:cx="-0.33114085"
     inkscape:cy="10.053696"
     inkscape:window-x="1913"
     inkscape:window-y="-6"
     inkscape:window-maximized="1"
     inkscape:current-layer="layer2"
     inkscape:document-rotation="0" />
  <g
     inkscape:groupmode="layer"
     id="layer1"
     inkscape:label="Layer 1">
    <circle
       style="opacity:1;fill:#4e8ec7;stroke-width:3.78;fill-opacity:1;stroke:none"
       id="path835"
       cx="12"
       cy="12"
       r="12" />
  </g>
  <g
     inkscape:groupmode="layer"
     id="layer2"
     inkscape:label="Layer 2">
    <path
       d="m 20.368608,15.903415 -2.600544,-1.505463 2.322187,-0.403399 c 0.228357,-0.05376 0.414406,-0.202468 0.525699,-0.395708 0.09687,-0.168242 0.136948,-0.370233 0.09859,-0.5723 -0.08242,-0.434182 -0.49554,-0.704648 -0.922688,-0.604181 l -3.336828,1.215431 -3.208393,-1.637772 3.208426,-1.637731 3.336836,1.215424 c 0.427182,0.100477 0.840306,-0.17 0.92269,-0.604174 0.0825,-0.434183 -0.197108,-0.86754 -0.624257,-0.968008 L 17.768146,9.6021352 20.368642,8.0966714 C 20.741298,7.8809302 20.861415,7.3899562 20.636892,7.000032 20.412357,6.6101077 19.928293,6.4689412 19.555644,6.684641 l -2.600545,1.5054636 0.812689,-2.2182373 c 0.126799,-0.4211658 -0.107733,-0.88054 -0.52394,-1.0260895 -0.416174,-0.1455082 -0.856324,0.078 -0.983123,0.4991823 L 15.642051,8.9502199 12.813032,10.587959 V 7.3125312 L 15.531193,5.0226524 C 15.831542,4.7019532 15.804518,4.2079708 15.470698,3.9193382 15.136907,3.6306221 14.62285,3.6567219 14.3225,3.9773382 L 12.812964,5.7921761 V 2.7812487 c 0,-0.4314825 -0.363982,-0.7812484 -0.813006,-0.7812484 -0.449024,0 -0.813007,0.3497659 -0.813007,0.7812484 V 5.7921761 L 9.6774221,3.9773379 C 9.3770727,3.6566385 8.863007,3.6306221 8.5292244,3.9193382 8.1954751,4.2079708 8.1684417,4.7019532 8.4688078,5.0226524 L 11.186968,7.3125312 V 10.588034 L 8.3579496,8.9503032 7.739276,5.4449933 C 7.6124428,5.0238275 7.1722853,4.8003113 6.7561197,4.9458193 6.3398705,5.0913273 6.1053792,5.5507349 6.2321706,5.9719089 L 7.0448689,8.1901463 4.4443658,6.6846826 C 4.0717082,6.4689412 3.5876092,6.6101828 3.3631179,7.0000737 3.1386268,7.3899894 3.2587017,7.8809718 3.6313591,8.0967132 L 6.2319039,9.6021768 3.9096753,10.00561 c -0.4271409,0.100478 -0.7066403,0.533833 -0.6242572,0.968006 0.082415,0.434141 0.4955491,0.704608 0.9227398,0.604141 l 3.3367851,-1.215423 3.208393,1.637689 -3.2084347,1.63773 -3.3368267,-1.215422 c -0.4271824,-0.100478 -0.8402733,0.169999 -0.9227315,0.604131 -0.082416,0.434108 0.197108,0.86754 0.6242571,0.968007 l 2.3222204,0.403441 -2.6005365,1.505464 c -0.3725824,0.215741 -0.492699,0.706715 -0.2681662,1.096639 0.2245328,0.389923 0.7085903,0.531132 1.0812479,0.315391 l 2.6005366,-1.505463 -0.8126901,2.218194 c -0.06775,0.225159 -0.032333,0.461134 0.078915,0.654333 0.096875,0.168242 0.2512828,0.304066 0.4449991,0.371757 0.4162074,0.145508 0.8563649,-0.078 0.9831563,-0.499174 l 0.6186742,-3.50531 2.8290201,-1.637729 v 3.275502 l -2.7181618,2.289878 c -0.3003911,0.3207 -0.2733161,0.814649 0.060416,1.103314 0.3337493,0.2886 0.8478483,0.262617 1.1481977,-0.05809 l 1.5095301,-1.814833 v 3.010969 c 0,0.431483 0.363983,0.781248 0.813007,0.781248 0.449024,0 0.813006,-0.349765 0.813006,-0.781248 v -3.010969 l 1.509531,1.814838 c 0.160582,0.171441 0.382108,0.258633 0.604607,0.258633 0.193749,0 0.388241,-0.06616 0.54359,-0.20055 0.333792,-0.288667 0.360816,-0.782615 0.0605,-1.103314 l -2.718194,-2.289876 v -3.275502 l 2.829018,1.637729 0.618667,3.50531 c 0.126799,0.421165 0.566957,0.644682 0.983123,0.499174 0.416131,-0.14554 0.65074,-0.604956 0.523907,-1.02609 l -0.81269,-2.218236 2.600536,1.505464 c 0.372657,0.215741 0.856757,0.0745 1.081247,-0.315392 0.224576,-0.389882 0.104489,-0.880856 -0.268199,-1.096556 z"
       id="path2"
       style="fill:#ffffff;fill-opacity:1;stroke:none;stroke-width:0.0390624" />
  </g>
</svg>
