<?xml version="1.0" encoding="UTF-8" standalone="no"?>
<svg
   xmlns:dc="http://purl.org/dc/elements/1.1/"
   xmlns:cc="http://creativecommons.org/ns#"
   xmlns:rdf="http://www.w3.org/1999/02/22-rdf-syntax-ns#"
   xmlns:svg="http://www.w3.org/2000/svg"
   xmlns="http://www.w3.org/2000/svg"
   xmlns:sodipodi="http://sodipodi.sourceforge.net/DTD/sodipodi-0.dtd"
   xmlns:inkscape="http://www.inkscape.org/namespaces/inkscape"
   version="1.1"
   viewBox="0 0 1024 1024"
   stroke="none"
   id="svg6"
   sodipodi:docname="qr.svg"
   inkscape:version="1.0.2-2 (e86c870879, 2021-01-15)"
   width="1024"
   height="1024">
  <metadata
     id="metadata12">
    <rdf:RDF>
      <cc:Work
         rdf:about="">
        <dc:format>image/svg+xml</dc:format>
        <dc:type
           rdf:resource="http://purl.org/dc/dcmitype/StillImage" />
        <dc:title></dc:title>
      </cc:Work>
    </rdf:RDF>
  </metadata>
  <defs
     id="defs10" />
  <sodipodi:namedview
     pagecolor="#ffffff"
     bordercolor="#666666"
     borderopacity="1"
     objecttolerance="10"
     gridtolerance="10"
     guidetolerance="10"
     inkscape:pageopacity="0"
     inkscape:pageshadow="2"
     inkscape:window-width="1920"
     inkscape:window-height="1018"
     id="namedview8"
     showgrid="false"
     inkscape:zoom="0.29061017"
     inkscape:cx="322.60109"
     inkscape:cy="49.40326"
     inkscape:window-x="-6"
     inkscape:window-y="-6"
     inkscape:window-maximized="1"
     inkscape:current-layer="svg6" />
  <path
     d="M 12,12 H 52 V 52 H 12 Z m 40,0 H 92 V 52 H 52 Z m 40,0 h 40 V 52 H 92 Z m 40,0 h 40 v 40 h -40 z m 40,0 h 40 v 40 h -40 z m 40,0 h 39.99999 v 40 h -39.99998 z m 39.99998,0 h 40.00001 v 40 h -40.00001 z m 80.00001,0 h 39.99996 v 40 h -39.99996 z m 119.99997,0 h 40 v 40 h -40 z m 40,0 h 40 v 40 h -40 z m 80,0 h 40 v 40 h -40 z m 160,0 h 40 v 40 h -40 z m 40,0 h 40 v 40 h -40 z m 40,0 h 40 v 40 h -40 z m 40,0 h 40 v 40 h -40 z m 40,0 h 40 v 40 h -40 z m 40,0 h 40 v 40 h -40 z m 40,0 H 1012 V 52 H 971.99996 Z M 12,52 H 52 V 92 H 12 Z m 239.99999,0 h 40 v 40 h -40 z m 80,0 h 39.99996 v 40 h -39.99996 z m 39.99996,0 h 40 v 40 h -40 z m 40,0 h 40.00001 v 40 h -40.00001 z m 80.00001,0 h 40 v 40 h -40 z m 40,0 h 40 v 40 h -40 z m 120,0 h 40 v 40 h -40 z m 80,0 h 40 v 40 h -40 z m 240,0 H 1012 V 92 H 971.99996 Z M 12,92 h 40 v 40 H 12 Z m 80,0 h 40.00001 v 40 H 92 Z m 40.00001,0 h 40 v 40 h -40 z m 40,0 h 40 v 40 h -40 z m 79.99998,0 h 40 v 40 h -40 z m 80,0 h 39.99996 v 40 h -39.99996 z m 39.99996,0 h 40 v 40 h -40 z m 80.00001,0 h 40 v 40 h -40 z m 80,0 h 40 v 40 h -40 z m 200,0 h 40 v 40 h -40 z m 80,0 h 40 v 40 h -40 z m 40,0 h 40 v 40 h -40 z m 40,0 h 40 v 40 h -40 z m 80,0 H 1012 v 40 H 971.99996 Z M 12,132 h 40 v 40 H 12 Z m 80,0 h 40.00001 v 40 H 92 Z m 40.00001,0 h 40 v 40 h -40 z m 40,0 h 40 v 40 h -40 z m 79.99998,0 h 40 v 40 h -40 z m 119.99996,0 h 40 v 40 h -40 z m 120.00001,0 h 40 v 40 h -40 z m 40,0 h 40 v 40 h -40 z m 80,0 h 40 v 40 h -40 z m 40,0 h 40 v 40 h -40 z m 80,0 h 40 v 40 h -40 z m 80,0 h 40 v 40 h -40 z m 40,0 h 40 v 40 h -40 z m 40,0 h 40 v 40 h -40 z m 80,0 H 1012 v 40 H 971.99996 Z M 12,172 h 40 v 40 H 12 Z m 80,0 h 40.00001 v 40 H 92 Z m 40.00001,0 h 40 v 40 h -40 z m 40,0 h 40 v 40 h -40 z m 79.99998,0 h 40 v 40 h -40 z m 80,0 h 39.99996 v 40 h -39.99996 z m 199.99997,0 h 40 v 40 h -40 z m 40,0 h 40 v 40 h -40 z m 80,0 h 40 v 40 h -40 z m 80,0 h 40 v 40 h -40 z m 80,0 h 40 v 40 h -40 z m 40,0 h 40 v 40 h -40 z m 40,0 h 40 v 40 h -40 z m 80,0 H 1012 v 40 H 971.99996 Z M 12,212 h 40 v 40 H 12 Z m 239.99999,0 h 40 v 40 h -40 z m 119.99996,0 h 40 v 40 h -40 z m 80.00001,0 h 40 v 40 h -40 z m 40,0 h 40 v 40 h -40 z m 160,0 h 40 v 40 h -40 z m 80,0 h 40 v 40 h -40 z m 240,0 H 1012 v 40 H 971.99996 Z M 12,252 h 40 v 40 H 12 Z m 40,0 h 40 v 40 H 52 Z m 40,0 h 40.00001 v 40 H 92 Z m 40.00001,0 h 40 v 40 h -40 z m 40,0 h 40 v 40 h -40 z m 40,0 h 39.99998 v 40 h -39.99998 z m 39.99998,0 h 40 v 40 h -40 z m 80,0 h 39.99996 v 40 h -39.99996 z m 79.99996,0 h 40.00001 v 40 h -40.00001 z m 80.00001,0 h 40 v 40 h -40 z m 80,0 h 40 v 40 h -40 z m 80,0 h 40 v 40 h -40 z m 80,0 h 40 v 40 h -40 z m 40,0 h 40 v 40 h -40 z m 40,0 h 40 v 40 h -40 z m 40,0 h 40 v 40 h -40 z m 40,0 h 40 v 40 h -40 z m 40,0 h 40 v 40 h -40 z m 40,0 H 1012 v 40 h -40.00004 z m -600.00001,40 h 40 v 40 h -40 z m 40,0 h 40.00001 v 40 h -40.00001 z m 40.00001,0 h 40 v 40 h -40 z m 40,0 h 40 v 40 h -40 z m 40,0 h 40 v 40 h -40 z M 12,332 h 40 v 40 H 12 Z m 120.00001,0 h 40 v 40 h -40 z m 40,0 h 40 v 40 h -40 z m 40,0 h 39.99998 v 40 h -39.99998 z m 39.99998,0 h 40 v 40 h -40 z m 40,0 h 40 v 40 h -40 z m 40,0 h 39.99996 v 40 h -39.99996 z m 39.99996,0 h 40 v 40 h -40 z m 80.00001,0 h 40 v 40 h -40 z m 40,0 h 40 v 40 h -40 z m 80,0 h 40 v 40 h -40 z m 40,0 h 40 v 40 h -40 z m 80,0 h 40 v 40 h -40 z m 120,0 h 40 v 40 h -40 z m 80,0 h 40 v 40 h -40 z m 40,0 h 40 v 40 h -40 z m 40,0 H 1012 v 40 H 971.99996 Z M 12,372 h 40 v 40 H 12 Z m 40,0 h 40 v 40 H 52 Z m 40,0 h 40.00001 v 40 H 92 Z m 80.00001,0 h 40 v 40 h -40 z m 119.99998,0 h 40 v 40 h -40 z m 40,0 h 39.99996 v 40 h -39.99996 z m 39.99996,0 h 40 v 40 h -40 z m 40,0 h 40.00001 v 40 h -40.00001 z m 40.00001,0 h 40 v 40 h -40 z m 80,0 h 40 v 40 h -40 z m 40,0 h 40 v 40 h -40 z m 40,0 h 40 v 40 h -40 z m 160,0 h 40 v 40 h -40 z m 40,0 h 40 v 40 h -40 z m 40,0 h 40 v 40 h -40 z m 40,0 h 40 v 40 h -40 z m 40,0 h 40 v 40 h -40 z M 52,412 h 40 v 40 H 52 Z m 80.00001,0 h 40 v 40 h -40 z m 119.99998,0 h 40 v 40 h -40 z m 80,0 h 39.99996 v 40 h -39.99996 z m 39.99996,0 h 40 v 40 h -40 z m 80.00001,0 h 40 v 40 h -40 z m 80,0 h 40 v 40 h -40 z m 80,0 h 40 v 40 h -40 z m 40,0 h 40 v 40 h -40 z m 80,0 h 40 v 40 h -40 z m 40,0 h 40 v 40 h -40 z m 80,0 h 40 v 40 h -40 z m 120,0 H 1012 v 40 H 971.99996 Z M 12,452 h 40 v 40 H 12 Z m 80,0 h 40.00001 v 40 H 92 Z m 80.00001,0 h 40 v 40 h -40 z m 119.99998,0 h 40 v 40 h -40 z m 40,0 h 39.99996 v 40 H 331.99999 Z M 732,452 h 40 v 40 h -40 z m 80,0 h 40 v 40 h -40 z m 40,0 h 40 v 40 h -40 z m 40,0 h 40 v 40 h -40 z m 40,0 h 40 v 40 h -40 z m 40,0 h 40 v 40 H 972 Z M 52,492 h 40 v 40 H 52 Z m 120,0 h 40 v 40 h -40 z m 80.00003,0 h 40 v 40 h -40 z m 40,0 h 40 v 40 h -40 z m 40,0 h 39.99996 v 40 H 332.00003 Z M 492,492 h 40 v 40 h -40 z m 80,0 h 40 v 40 h -40 z m 40,0 h 40 v 40 h -40 z m 120,0 h 40 v 40 h -40 z m 40,0 h 40 v 40 h -40 z m 200,0 h 40 v 40 H 972 Z M 12,532 h 40 v 40 H 12 Z m 40,0 h 40 v 40 H 52 Z m 40,0 h 40 v 40 H 92 Z m 40,0 h 40 v 40 h -40 z m 40,0 h 40 v 40 h -40 z m 40,0 h 40.00003 v 40 h -40.00002 z m 80.00003,0 h 40 v 40 h -40 z m 79.99996,0 H 412 v 40 H 371.99999 Z M 572,532 h 40 v 40 h -40 z m 40,0 h 40 v 40 h -40 z m 40,0 h 40 v 40 h -40 z m 40,0 h 40 v 40 h -40 z m 120,0 h 40 v 40 h -40 z m 120,0 h 40 v 40 H 932 Z M 12,572 h 40 v 40 H 12 Z m 40,0 h 40 v 40 H 52 Z m 80,0 h 40 v 40 h -40 z m 40,0 h 40 v 40 h -40 z m 40,0 h 40.00003 v 40 h -40.00002 z m 40.00003,0 h 40 v 40 h -40 z m 40,0 h 40 v 40 h -40 z M 412,572 h 40 v 40 h -40 z m 40,0 h 40 v 40 h -40 z m 40,0 h 40 v 40 h -40 z m 80,0 h 40 v 40 h -40 z m 40,0 h 40 v 40 h -40 z m 80,0 h 40 v 40 h -40 z m 40,0 h 40 v 40 h -40 z m 80,0 h 40 v 40 h -40 z m 40,0 h 40 v 40 h -40 z m 40,0 h 40 v 40 h -40 z m 40,0 h 40 v 40 h -40 z m 40,0 h 40 v 40 H 972 Z M 12,612 h 40 v 40 H 12 Z m 80,0 h 40 v 40 H 92 Z m 40,0 h 40 v 40 h -40 z m 80,0 h 40.00003 v 40 h -40.00002 z m 159.99999,0 H 412 v 40 H 371.99999 Z M 412,612 h 40 v 40 h -40 z m 40,0 h 40 v 40 h -40 z m 120,0 h 40 v 40 h -40 z m 80,0 h 40 v 40 h -40 z m 120,0 h 40 v 40 h -40 z m 80,0 h 40 v 40 h -40 z m 40,0 h 40 v 40 h -40 z m 80,0 h 40 v 40 H 972 Z M 12,652 h 40 v 40 H 12 Z m 160,0 h 40 v 40 h -40 z m 40,0 h 40.00003 v 40 h -40.00002 z m 40.00003,0 h 40 v 40 h -40 z m 80,0 h 39.99996 v 40 h -39.99996 z m 39.99996,0 H 412 v 40 H 371.99999 Z M 412,652 h 40 v 40 h -40 z m 80,0 h 40 v 40 h -40 z m 40,0 h 40 v 40 h -40 z m 120,0 h 40 v 40 h -40 z m 40,0 h 40 v 40 h -40 z m 40,0 h 40 v 40 h -40 z m 40,0 h 40 v 40 h -40 z m 40,0 h 40 v 40 h -40 z m 80,0 h 40 v 40 h -40 z m 40,0 h 40 v 40 h -40 z m -599.99997,40 h 39.99996 v 40 H 332.00003 Z M 452,692 h 40 v 40 h -40 z m 40,0 h 40 v 40 h -40 z m 120,0 h 40 v 40 h -40 z m 40,0 h 40 v 40 h -40 z m 160,0 h 40 v 40 h -40 z m 80,0 h 40 v 40 h -40 z m 40,0 h 40 v 40 H 932 Z M 12,732 h 40 v 40 H 12 Z m 40,0 h 40 v 40 H 52 Z m 40,0 h 40 v 40 H 92 Z m 40,0 h 40 v 40 h -40 z m 40,0 h 40 v 40 h -40 z m 40,0 h 40.00003 v 40 h -40.00002 z m 40.00003,0 h 40 v 40 h -40 z m 80,0 h 39.99996 v 40 h -39.99996 z m 39.99996,0 H 412 v 40 H 371.99999 Z M 452,732 h 40 v 40 h -40 z m 80,0 h 40 v 40 h -40 z m 120,0 h 40 v 40 h -40 z m 80,0 h 40 v 40 h -40 z m 80,0 h 40 v 40 h -40 z m 160,0 h 40 v 40 H 972 Z M 12,772 h 40 v 40 H 12 Z m 240.00003,0 h 40 v 40 h -40 z m 80,0 h 39.99996 v 40 H 332.00003 Z M 412,772 h 40 v 40 h -40 z m 40,0 h 40 v 40 h -40 z m 80,0 h 40 v 40 h -40 z m 40,0 h 40 v 40 h -40 z m 40,0 h 40 v 40 h -40 z m 40,0 h 40 v 40 h -40 z m 160,0 h 40 v 40 h -40 z m 120,0 h 40 v 40 h -40 z m 40,0 h 40 v 40 H 972 Z M 12,812 h 40 v 40 H 12 Z m 80,0 h 40 v 40 H 92 Z m 40,0 h 40 v 40 h -40 z m 40,0 h 40 v 40 h -40 z m 80.00003,0 h 40 v 40 h -40 z m 80,0 h 39.99996 v 40 H 332.00003 Z M 412,812 h 40 v 40 h -40 z m 40,0 h 40 v 40 h -40 z m 40,0 h 40 v 40 h -40 z m 80,0 h 40 v 40 h -40 z m 40,0 h 40 v 40 h -40 z m 40,0 h 40 v 40 h -40 z m 40,0 h 40 v 40 h -40 z m 40,0 h 40 v 40 h -40 z m 40,0 h 40 v 40 h -40 z m 40,0 h 40 v 40 H 812 Z M 12,852 h 40 v 40 H 12 Z m 80,0 h 40 v 40 H 92 Z m 40,0 h 40 v 40 h -40 z m 40,0 h 40 v 40 h -40 z m 80.00003,0 h 40 v 40 h -40 z m 80,0 h 39.99996 v 40 h -39.99996 z m 39.99996,0 H 412 v 40 H 371.99999 Z M 452,852 h 40 v 40 h -40 z m 40,0 h 40 v 40 h -40 z m 80,0 h 40 v 40 h -40 z m 120,0 h 40 v 40 h -40 z m 40,0 h 40 v 40 h -40 z m 200,0 h 40 v 40 h -40 z m 40,0 h 40 v 40 H 972 Z M 12,892 h 40 v 40 H 12 Z m 80,0 h 40 v 40 H 92 Z m 40,0 h 40 v 40 h -40 z m 40,0 h 40 v 40 h -40 z m 80.00003,0 h 40 v 40 h -40 z m 119.99996,0 H 412 v 40 H 371.99999 Z M 412,892 h 40 v 40 h -40 z m 40,0 h 40 v 40 h -40 z m 40,0 h 40 v 40 h -40 z m 160,0 h 40 v 40 h -40 z m 40,0 h 40 v 40 h -40 z m 120,0 h 40 v 40 h -40 z m 40,0 h 40 v 40 h -40 z m 40,0 h 40 v 40 h -40 z m 40,0 h 40 v 40 h -40 z m 40,0 h 40 v 40 H 972 Z M 12,932 h 40 v 40 H 12 Z m 240.00003,0 h 40 v 40 h -40 z m 119.99996,0 H 412 v 40 H 371.99999 Z M 412,932 h 40 v 40 h -40 z m 160,0 h 40 v 40 h -40 z m 120,0 h 40 v 40 h -40 z m 80,0 h 40 v 40 h -40 z m 40,0 h 40 v 40 h -40 z m 80,0 h 40 v 40 h -40 z m 40,0 h 40 v 40 h -40 z m 40,0 h 40 v 40 H 972 Z M 12,972 h 40 v 40 H 12 Z m 40,0 h 40 v 40 H 52 Z m 40,0 h 40 v 40 H 92 Z m 40,0 h 40 v 40 h -40 z m 40,0 h 40 v 40 h -40 z m 40,0 h 40.00003 v 40 h -40.00002 z m 40.00003,0 h 40 v 40 h -40 z m 80,0 h 39.99996 v 40 H 332.00003 Z M 412,972 h 40 v 40 h -40 z m 40,0 h 40 v 40 h -40 z m 200,0 h 40 v 40 h -40 z m 80,0 h 40 v 40 h -40 z m 120,0 h 40 v 40 h -40 z m 120,0 h 40 v 40 h -40 z"
     fill="#000000"
     id="path4"
     style="stroke-width:40" />
</svg>
